<svg version="1.1" id="Layer_1" xmlns="http://www.w3.org/2000/svg" x="0" y="0" viewBox="0 0 416.15 108.13" xml:space="preserve"><style>.st0{fill:#fff}</style><path class="st0" d="M128.41 80.51V55.33c0-.53.19-.97.57-1.34.38-.36.83-.55 1.36-.55h23.33c.53 0 .97.19 1.35.57.37.38.56.83.56 1.36v1.9c0 .53-.19.97-.56 1.35-.37.37-.82.56-1.35.56h-17.62v7.12h14.34c.53 0 .97.19 1.35.57s.56.82.56 1.34v1.92c0 .53-.19.97-.56 1.35s-.82.56-1.35.56h-14.34v8.5c0 .55-.19 1.02-.56 1.39s-.82.56-1.34.56h-3.8c-.53 0-.98-.19-1.36-.56-.39-.4-.58-.86-.58-1.42zm31.69.08V55.37c0-.53.19-.98.57-1.36.38-.38.83-.57 1.36-.57h3.76c.55 0 1.02.19 1.39.57s.56.83.56 1.36v25.19c0 .53-.19.97-.58 1.35s-.84.56-1.37.56h-3.76c-.53 0-.98-.18-1.36-.54-.38-.37-.57-.81-.57-1.34zm14.68-.08V55.33c0-.53.19-.97.57-1.34.38-.36.83-.55 1.36-.55h23.33c.53 0 .97.19 1.35.57s.56.83.56 1.36v1.9c0 .53-.19.97-.56 1.35-.37.37-.82.56-1.35.56H182.4v7.12h14.34c.53 0 .97.19 1.35.57s.56.82.56 1.34v1.92c0 .53-.19.97-.56 1.35s-.82.56-1.35.56H182.4v8.5c0 .55-.19 1.02-.56 1.39s-.82.56-1.34.56h-3.8c-.53 0-.98-.19-1.36-.56-.38-.4-.56-.86-.56-1.42zm29.2-23.24v-1.9c0-.55.18-1.01.55-1.38.36-.36.82-.55 1.38-.55h25.67c.55 0 1.01.18 1.38.55.36.36.55.82.55 1.38v1.9c0 .55-.18 1.01-.55 1.37-.36.36-.82.54-1.38.54h-9.02V80.6c0 .53-.19.97-.56 1.33-.37.36-.82.54-1.35.54h-3.82c-.53 0-.97-.18-1.35-.54-.37-.36-.56-.8-.56-1.33V59.17h-9.02c-.55 0-1.01-.18-1.38-.54-.36-.35-.54-.81-.54-1.36zm34.05 23.28V55.37c0-.53.19-.98.57-1.36.38-.38.84-.57 1.4-.57h3.76c.53 0 .97.19 1.34.57.37.38.56.83.56 1.36v9.1h13.92v-9.1c0-.53.19-.98.57-1.36.38-.38.83-.57 1.36-.57h3.76c.55 0 1.02.19 1.39.57s.56.83.56 1.36v25.19c0 .53-.19.97-.58 1.35-.38.37-.84.56-1.37.56h-3.76c-.53 0-.98-.18-1.36-.54-.38-.36-.57-.8-.57-1.33V70.2h-13.92v10.4c0 .53-.19.97-.56 1.33-.37.36-.82.54-1.34.54H240c-.53 0-.98-.19-1.38-.56-.39-.38-.59-.83-.59-1.36zm50.31-5.52c0-.8.24-1.37.71-1.71.47-.34.93-.52 1.38-.52h2.41c1.21 0 2.14.66 2.77 1.98.63 1.32 2.06 1.98 4.27 1.98l7.08.14c2.37 0 3.56-.78 3.56-2.33 0-1.17-1.45-2.1-4.35-2.77-1.29-.31-2.73-.62-4.29-.92-1.57-.3-3.12-.68-4.66-1.14-1.54-.46-2.96-1-4.26-1.62-1.29-.62-2.34-1.47-3.15-2.56-.8-1.09-1.2-2.36-1.2-3.83 0-2.71.96-4.8 2.89-6.26 1.93-1.46 5.25-2.19 9.95-2.19l5.14.12c2.77 0 5.26.71 7.48 2.13s3.33 3.2 3.33 5.33c0 .8-.24 1.37-.71 1.72-.47.35-.92.53-1.36.53h-2.41c-1.21 0-2.14-.66-2.77-1.99-.63-1.33-2.06-1.99-4.27-1.99l-6.09-.12c-2.37 0-3.56.78-3.56 2.33 0 .85.75 1.54 2.26 2.08 1.5.54 3.32 1.02 5.46 1.43 2.14.41 4.28.91 6.44 1.49s3.99 1.53 5.49 2.86c1.5 1.33 2.26 2.98 2.26 4.97 0 2.71-.97 4.8-2.9 6.26-1.94 1.46-5.25 2.19-9.94 2.19l-6.13-.12c-2.76 0-5.26-.71-7.48-2.13-2.23-1.43-3.35-3.21-3.35-5.34zm32.08-17.76v-1.9c0-.55.18-1.01.55-1.38.36-.36.82-.55 1.38-.55h25.67c.55 0 1.01.18 1.38.55.36.36.55.82.55 1.38v1.9c0 .55-.18 1.01-.55 1.37-.36.36-.82.54-1.38.54H339V80.6c0 .53-.19.97-.56 1.33-.37.36-.82.54-1.35.54h-3.82c-.53 0-.97-.18-1.35-.54-.37-.36-.56-.8-.56-1.33V59.17h-9.02c-.55 0-1.01-.18-1.38-.54-.36-.35-.54-.81-.54-1.36zm34.06 23.24V55.33c0-.53.19-.97.57-1.34.38-.36.83-.55 1.36-.55h23.33c.53 0 .97.19 1.35.57s.56.83.56 1.36v1.9c0 .53-.19.97-.56 1.35-.37.37-.82.56-1.35.56H362.1v5.89h15.17c.53 0 .97.19 1.35.56.37.37.56.82.56 1.35v1.9c0 .53-.19.97-.56 1.35-.37.37-.82.56-1.35.56H362.1v5.97h17.58c.51 0 .95.18 1.31.55.36.36.55.81.55 1.34v1.94c0 .53-.19.97-.57 1.35-.38.37-.83.56-1.36.56H356.4c-.53 0-.98-.19-1.36-.56-.38-.41-.56-.87-.56-1.43zm32.11.04V55.37c0-.53.18-.98.55-1.36.36-.38.81-.57 1.34-.57h15.44c8.16 0 12.24 3.76 12.24 11.28S412.08 76 403.92 76h-9.69v4.55c0 .53-.19.97-.56 1.35s-.82.56-1.34.56h-3.8c-.53 0-.98-.19-1.36-.56-.39-.37-.58-.82-.58-1.35zm7.63-10.27h7.38c2.27 0 3.99-.38 5.16-1.14 1.17-.76 1.76-2.23 1.76-4.41s-.59-3.65-1.76-4.41c-1.17-.76-2.89-1.14-5.16-1.14h-7.38v11.1zm-265.79 34.56c0-.34.1-.59.31-.74.2-.15.4-.22.6-.22h1.04c.53 0 .93.29 1.2.86.28.57.89.86 1.85.86l3.07.06c1.03 0 1.54-.34 1.54-1.01 0-.51-.63-.91-1.89-1.2-.56-.13-1.18-.27-1.86-.4-.68-.13-1.35-.3-2.02-.5-.67-.2-1.28-.43-1.85-.7-.56-.27-1.02-.64-1.36-1.11-.35-.47-.52-1.02-.52-1.66 0-1.18.42-2.08 1.25-2.72.84-.63 2.27-.95 4.32-.95l2.23.05c1.2 0 2.28.31 3.24.93.96.62 1.44 1.39 1.44 2.31 0 .35-.1.59-.31.75-.2.15-.4.23-.59.23h-1.04c-.53 0-.93-.29-1.2-.86-.28-.58-.89-.86-1.85-.86l-2.64-.05c-1.03 0-1.54.34-1.54 1.01 0 .37.33.67.98.9.65.23 1.44.44 2.37.62.93.18 1.86.39 2.79.64.94.25 1.73.67 2.38 1.24s.98 1.29.98 2.15c0 1.18-.42 2.08-1.26 2.72-.84.63-2.28.95-4.31.95l-2.66-.05c-1.2 0-2.28-.31-3.25-.93-.95-.63-1.44-1.4-1.44-2.32zm19.66 1.31l1.2-.11h.33c.16 0 .29.05.39.15.1.1.15.23.15.39v.94c0 .13-.05.24-.15.35-.1.1-.23.17-.39.19-.6.12-1.37.18-2.33.18-2.51 0-3.77-1.32-3.77-3.95v-8.26c0-.16.05-.29.15-.39.1-.1.23-.15.38-.15h1.97c.15 0 .28.05.38.15.1.1.15.23.15.39v2.93H149c.15 0 .28.05.38.15.1.1.15.23.15.39v1.04c0 .16-.05.29-.15.39-.1.1-.23.15-.38.15h-2.45v3.22c0 .6.14 1.06.42 1.38s.65.47 1.12.47zm4.76.8c-.9-.85-1.35-2.08-1.35-3.69s.45-2.84 1.36-3.7c.91-.86 2.16-1.29 3.77-1.29 1.61 0 2.86.42 3.76 1.26.9.84 1.35 2.04 1.35 3.61v.5c0 .16-.05.29-.15.39-.1.1-.23.15-.39.15h-6.61c.06.72.26 1.24.62 1.57.35.33.92.49 1.7.49.78 0 1.31-.18 1.6-.53.29-.35.64-.53 1.06-.54h1.31c.16 0 .29.05.39.15.1.1.15.23.15.39 0 1.68-1.6 2.51-4.8 2.51-1.61.01-2.86-.41-3.77-1.27zm1.73-4.62h4.08c-.06-1.38-.74-2.07-2.03-2.07-1.29 0-1.98.69-2.05 2.07zm9.32 5.19v-8.54c0-.16.05-.29.15-.39.1-.1.23-.15.38-.15h1.97c.16 0 .29.05.39.15s.15.23.15.39v.55c.42-.41.83-.72 1.24-.94.41-.22.9-.33 1.47-.33 1.36 0 2.39.56 3.1 1.68 1.09-1.13 2.2-1.69 3.35-1.69 1.14 0 2.05.35 2.71 1.04.66.69 1 1.75 1 3.19v5.04c0 .16-.05.29-.15.39-.1.1-.23.15-.39.15h-1.96c-.16 0-.29-.05-.39-.15a.52.52 0 01-.15-.38v-5.04c0-1.4-.51-2.1-1.53-2.1-.62 0-1.26.45-1.92 1.34.03.25.05.5.05.75v5.04c0 .16-.05.29-.15.39-.1.1-.23.15-.38.15h-1.96c-.16 0-.29-.05-.39-.15a.52.52 0 01-.15-.38v-5.04c0-1.4-.51-2.1-1.53-2.1-.65 0-1.27.42-1.87 1.25v5.88c0 .16-.05.29-.15.39-.1.1-.23.15-.38.15h-1.97c-.16 0-.29-.05-.39-.15-.1-.1-.15-.23-.15-.39zm26.51-.94c-1.09-1.04-1.63-2.64-1.63-4.8s.54-3.77 1.63-4.81c1.09-1.04 2.71-1.56 4.88-1.56h1.96c1.33 0 2.5.34 3.52 1.04 1.02.69 1.53 1.63 1.53 2.83 0 .35-.1.59-.31.74-.2.15-.4.22-.6.22h-1.04c-.54 0-.96-.32-1.25-.97-.43-.92-1.15-1.39-2.16-1.39h-1.56c-1.28 0-2.15.27-2.61.82-.46.55-.68 1.57-.68 3.05s.23 2.5.68 3.06c.46.55 1.32.83 2.61.83h1.75c1.01 0 1.72-.46 2.15-1.39.3-.65.72-.97 1.26-.97h1.04c.28 0 .49.1.65.31.16.21.24.43.24.67 0 1.2-.51 2.14-1.53 2.83s-2.19 1.03-3.52 1.03h-2.14c-2.16.01-3.79-.51-4.87-1.54zm14.94.37c-.9-.85-1.35-2.08-1.35-3.69s.45-2.84 1.36-3.7c.91-.86 2.16-1.29 3.77-1.29 1.61 0 2.86.42 3.76 1.26.9.84 1.35 2.04 1.35 3.61v.5c0 .16-.05.29-.15.39-.1.1-.23.15-.39.15h-6.61c.06.72.26 1.24.62 1.57.35.33.92.49 1.7.49.78 0 1.31-.18 1.6-.53.29-.35.64-.53 1.06-.54h1.31c.16 0 .29.05.39.15.1.1.15.23.15.39 0 1.68-1.6 2.51-4.8 2.51-1.61.01-2.87-.41-3.77-1.27zm1.73-4.62h4.08c-.06-1.38-.74-2.07-2.03-2.07-1.3 0-1.98.69-2.05 2.07zm9.32 5.19v-11.5c0-.16.05-.29.15-.39.1-.1.23-.15.38-.15h1.97c.15 0 .28.05.38.15.1.1.15.23.15.39v11.5c0 .15-.05.28-.15.38-.1.1-.23.15-.38.15h-1.97a.52.52 0 01-.38-.15c-.1-.1-.15-.22-.15-.38zm5.73 0v-11.5c0-.16.05-.29.15-.39.1-.1.23-.15.38-.15h1.97c.15 0 .28.05.38.15.1.1.15.23.15.39v11.5c0 .15-.05.28-.15.38-.1.1-.23.15-.38.15h-1.97a.52.52 0 01-.38-.15c-.1-.1-.15-.22-.15-.38zm11.66-10.38v-.82c0-.24.08-.44.24-.6.16-.16.36-.24.6-.24h11.13c.24 0 .44.08.6.24.16.16.24.36.24.6v.82c0 .24-.08.44-.24.59-.16.15-.36.23-.6.23h-3.91v9.29c0 .23-.08.42-.24.57-.16.16-.35.23-.58.23h-1.66c-.23 0-.42-.08-.58-.23a.763.763 0 01-.24-.57v-9.29h-3.91c-.24 0-.44-.08-.6-.23-.18-.16-.25-.35-.25-.59zm20.54 3.53l-1.35-.05c-.79 0-1.54.43-2.26 1.3v5.61c0 .16-.05.29-.15.39-.1.1-.23.15-.38.15h-1.97c-.16 0-.29-.05-.39-.15-.1-.1-.15-.23-.15-.39v-8.54c0-.16.05-.29.15-.39.1-.1.23-.15.38-.15h1.97c.16 0 .29.05.39.15.1.1.15.23.15.39v.55c.6-.43 1.17-.75 1.72-.96.55-.21 1.28-.31 2.17-.31.16 0 .29.05.39.15.1.1.15.23.15.38v1.33c0 .16-.05.29-.15.39-.1.1-.23.15-.39.15h-.28zm3.33 6.28c-.9-.85-1.35-2.08-1.35-3.69s.45-2.84 1.36-3.7c.91-.86 2.16-1.29 3.77-1.29s2.86.42 3.76 1.26c.9.84 1.35 2.04 1.35 3.61v.5c0 .16-.05.29-.15.39-.1.1-.23.15-.39.15h-6.61c.06.72.26 1.24.62 1.57.35.33.92.49 1.7.49s1.31-.18 1.6-.53c.29-.35.64-.53 1.06-.54h1.31c.16 0 .29.05.39.15.1.1.15.23.15.39 0 1.68-1.6 2.51-4.8 2.51-1.61.01-2.87-.41-3.77-1.27zm1.73-4.62h4.08c-.06-1.38-.74-2.07-2.03-2.07-1.3 0-1.98.69-2.05 2.07zm9.94 5.1c-.77-.54-1.16-1.3-1.16-2.28 0-.98.39-1.74 1.16-2.26.77-.53 1.77-.79 3-.79h2.9c0-.68-.14-1.16-.43-1.43s-.79-.4-1.5-.4-1.22.18-1.51.53c-.29.35-.64.53-1.07.53h-1.31c-.16 0-.29-.05-.39-.15a.52.52 0 01-.15-.38c0-1.68 1.59-2.52 4.78-2.52 1.39 0 2.51.31 3.35.93.84.62 1.26 1.59 1.26 2.89v5.43c0 .16-.05.29-.15.39-.1.1-.23.15-.39.15h-1.69c-.16 0-.29-.05-.39-.15a.52.52 0 01-.15-.38v-.27c-.92.66-1.99.99-3.2.99-1.19-.02-2.19-.29-2.96-.83zm2.24-3.05c-.24.2-.35.46-.35.77 0 .32.12.58.37.78.24.2.59.31 1.04.31.9 0 1.77-.26 2.61-.79v-1.37h-2.69c-.42 0-.75.1-.98.3zm13.97 1.77l1.2-.11h.33c.16 0 .29.05.39.15.1.1.15.23.15.39v.94c0 .13-.05.24-.15.35s-.23.17-.39.19c-.6.12-1.37.18-2.33.18-2.51 0-3.77-1.32-3.77-3.95v-8.26c0-.16.05-.29.15-.39.1-.1.23-.15.38-.15h1.97c.15 0 .28.05.38.15s.15.23.15.39v2.93h2.45c.15 0 .28.05.38.15.1.1.15.23.15.39v1.04c0 .16-.05.29-.15.39-.1.1-.23.15-.38.15H284v3.22c0 .6.14 1.06.42 1.38s.65.47 1.12.47zm4.05 1.37v-8.54c0-.16.05-.29.15-.39.1-.1.23-.15.38-.15h1.97c.16 0 .29.05.39.15s.15.23.15.39v.55c.42-.41.83-.72 1.24-.94.41-.22.9-.33 1.47-.33 1.36 0 2.39.56 3.1 1.68 1.09-1.13 2.2-1.69 3.35-1.69 1.14 0 2.05.35 2.71 1.04.66.69 1 1.75 1 3.19v5.04c0 .16-.05.29-.15.39-.1.1-.23.15-.39.15H303c-.16 0-.29-.05-.39-.15a.52.52 0 01-.15-.38v-5.04c0-1.4-.51-2.1-1.53-2.1-.62 0-1.26.45-1.92 1.34.03.25.05.5.05.75v5.04c0 .16-.05.29-.15.39-.1.1-.23.15-.38.15h-1.96c-.16 0-.29-.05-.39-.15a.52.52 0 01-.15-.38v-5.04c0-1.4-.51-2.1-1.53-2.1-.65 0-1.27.42-1.87 1.25v5.88c0 .16-.05.29-.15.39-.1.1-.23.15-.38.15h-1.97c-.16 0-.29-.05-.39-.15-.1-.1-.15-.23-.15-.39zm19.4-.57c-.9-.85-1.35-2.08-1.35-3.69s.45-2.84 1.36-3.7c.91-.86 2.16-1.29 3.77-1.29s2.86.42 3.76 1.26c.9.84 1.35 2.04 1.35 3.61v.5c0 .16-.05.29-.15.39-.1.1-.23.15-.39.15h-6.61c.06.72.26 1.24.62 1.57.35.33.92.49 1.7.49s1.31-.18 1.6-.53c.29-.35.64-.53 1.06-.54h1.31c.16 0 .29.05.39.15.1.1.15.23.15.39 0 1.68-1.6 2.51-4.8 2.51-1.61.01-2.87-.41-3.77-1.27zm1.73-4.62h4.08c-.06-1.38-.74-2.07-2.03-2.07-1.3 0-1.98.69-2.05 2.07zm9.32 5.19v-8.54c0-.16.05-.29.15-.39.1-.1.23-.15.38-.15h1.97c.15 0 .28.05.38.15s.15.23.15.39v.55c1.01-.85 2.08-1.27 3.21-1.27 1.14 0 2.06.35 2.78 1.04.71.69 1.07 1.75 1.07 3.18v5.04c0 .15-.05.28-.15.38-.1.1-.23.15-.39.15h-1.96a.52.52 0 01-.38-.15.52.52 0 01-.15-.38v-5.04c0-1.4-.56-2.1-1.68-2.1-.73 0-1.52.42-2.35 1.25v5.88c0 .15-.05.28-.15.38s-.23.15-.38.15h-1.97a.52.52 0 01-.38-.15.468.468 0 01-.15-.37zm17.37-1.37l1.2-.11h.33c.16 0 .29.05.39.15.1.1.15.23.15.39v.94c0 .13-.05.24-.15.35s-.23.17-.39.19c-.6.12-1.37.18-2.33.18-2.51 0-3.77-1.32-3.77-3.95v-8.26c0-.16.05-.29.15-.39.1-.1.23-.15.38-.15h1.97c.15 0 .28.05.38.15.1.1.15.23.15.39v2.93h2.45c.15 0 .28.05.38.15.1.1.15.23.15.39v1.04c0 .16-.05.29-.15.39-.1.1-.23.15-.38.15h-2.45v3.22c0 .6.14 1.06.42 1.38s.65.47 1.12.47zm11.96.43c-1.08-1.04-1.63-2.64-1.63-4.8s.54-3.77 1.63-4.81c1.09-1.04 2.71-1.56 4.88-1.56h1.96c1.33 0 2.5.34 3.52 1.04 1.02.69 1.53 1.63 1.53 2.83 0 .35-.1.59-.31.74-.2.15-.4.22-.6.22h-1.04c-.54 0-.96-.32-1.25-.97-.43-.92-1.15-1.39-2.16-1.39h-1.56c-1.28 0-2.15.27-2.61.82-.46.55-.68 1.57-.68 3.05s.23 2.5.68 3.06c.46.55 1.32.83 2.61.83h1.75c1.01 0 1.72-.46 2.15-1.39.3-.65.72-.97 1.26-.97h1.04c.28 0 .49.1.65.31.16.21.24.43.24.67 0 1.2-.51 2.14-1.53 2.83s-2.19 1.03-3.52 1.03h-2.14c-2.16.01-3.79-.51-4.87-1.54zm14.94.37c-.9-.85-1.35-2.08-1.35-3.69s.45-2.84 1.36-3.7c.91-.86 2.16-1.29 3.77-1.29s2.86.42 3.76 1.26c.9.84 1.35 2.04 1.35 3.61v.5c0 .16-.05.29-.15.39-.1.1-.23.15-.39.15h-6.61c.06.72.26 1.24.62 1.57.35.33.92.49 1.7.49.78 0 1.31-.18 1.6-.53.29-.35.64-.53 1.06-.54h1.31c.16 0 .29.05.39.15.1.1.15.23.15.39 0 1.68-1.6 2.51-4.8 2.51-1.61.01-2.87-.41-3.77-1.27zm1.73-4.62h4.08c-.06-1.38-.74-2.07-2.03-2.07-1.3 0-1.98.69-2.05 2.07zm9.32 5.19v-8.54c0-.16.05-.29.15-.39.1-.1.23-.15.38-.15h1.97c.15 0 .28.05.38.15s.15.23.15.39v.55c1.01-.85 2.08-1.27 3.21-1.27 1.14 0 2.06.35 2.78 1.04.71.69 1.07 1.75 1.07 3.18v5.04c0 .15-.05.28-.15.38-.1.1-.23.15-.39.15h-1.96a.52.52 0 01-.38-.15.52.52 0 01-.15-.38v-5.04c0-1.4-.56-2.1-1.68-2.1-.73 0-1.52.42-2.35 1.25v5.88c0 .15-.05.28-.15.38s-.23.15-.38.15h-1.97a.52.52 0 01-.38-.15.468.468 0 01-.15-.37zm17.37-1.37l1.2-.11h.33c.16 0 .29.05.39.15.1.1.15.23.15.39v.94c0 .13-.05.24-.15.35s-.23.17-.39.19c-.6.12-1.37.18-2.33.18-2.51 0-3.77-1.32-3.77-3.95v-8.26c0-.16.05-.29.15-.39.1-.1.23-.15.38-.15h1.97c.15 0 .28.05.38.15s.15.23.15.39v2.93h2.45c.15 0 .28.05.38.15.1.1.15.23.15.39v1.04c0 .16-.05.29-.15.39-.1.1-.23.15-.38.15h-2.45v3.22c0 .6.14 1.06.42 1.38.28.31.65.47 1.12.47zm4.77.8c-.9-.85-1.35-2.08-1.35-3.69s.45-2.84 1.36-3.7c.91-.86 2.16-1.29 3.77-1.29s2.86.42 3.76 1.26c.9.84 1.35 2.04 1.35 3.61v.5c0 .16-.05.29-.15.39-.1.1-.23.15-.39.15h-6.61c.06.72.26 1.24.62 1.57.35.33.92.49 1.7.49.78 0 1.31-.18 1.6-.53.29-.35.64-.53 1.06-.54h1.31c.16 0 .29.05.39.15.1.1.15.23.15.39 0 1.68-1.6 2.51-4.8 2.51-1.61.01-2.87-.41-3.77-1.27zm1.73-4.62h4.08c-.06-1.38-.74-2.07-2.03-2.07-1.3 0-1.98.69-2.05 2.07zm15.97-1.66l-1.35-.05c-.79 0-1.54.43-2.26 1.3v5.61c0 .16-.05.29-.15.39-.1.1-.23.15-.38.15h-1.97c-.16 0-.29-.05-.39-.15-.1-.1-.15-.23-.15-.39v-8.54c0-.16.05-.29.15-.39.1-.1.23-.15.38-.15h1.97c.16 0 .29.05.39.15.1.1.15.23.15.39v.55c.6-.43 1.17-.75 1.72-.96.55-.21 1.28-.31 2.17-.31.16 0 .29.05.39.15.1.1.15.23.15.38v1.33c0 .16-.05.29-.15.39-.1.1-.23.15-.39.15h-.28zM37.73 37.73c-7.82 7.83-12.13 18.23-12.13 29.3 0 4.71.79 9.3 2.29 13.63a41.322 41.322 0 01-15.75-9.87c-16.19-16.19-16.19-42.45 0-58.64s42.45-16.19 58.64 0c4.6 4.6 7.89 10.01 9.87 15.77a41.582 41.582 0 00-13.63-2.29c-10.6-.01-21.21 4.03-29.29 12.1z"/><path class="st0" d="M45.2 45.2c10.21-10.21 25.85-11.76 37.71-4.64.24 10.91-3.8 21.9-12.12 30.23-8.33 8.33-19.33 12.36-30.24 12.12-2.86-4.75-4.39-10.2-4.39-15.88 0-8.25 3.21-16 9.04-21.83z"/><path class="st0" d="M108.45 67.03c0 11.07-4.31 21.47-12.13 29.29-7.82 7.82-18.23 12.13-29.29 12.13s-21.47-4.31-29.29-12.13c-4.49-4.49-7.82-9.84-9.84-15.67 4.09 1.42 8.37 2.16 12.65 2.26 1.29 2.14 2.84 4.13 4.66 5.95 5.83 5.83 13.58 9.04 21.83 9.04s16-3.21 21.83-9.04c5.83-5.83 9.04-13.58 9.04-21.83 0-8.25-3.21-16-9.04-21.83a30.425 30.425 0 00-5.95-4.64c-.09-4.28-.84-8.55-2.25-12.64a41.16 41.16 0 0115.66 9.82c7.81 7.82 12.12 18.22 12.12 29.29z"/><circle class="st0" cx="103.17" cy="13.76" r="5.24"/></svg>