<svg viewBox="0 0 485.21 485.21" xmlns="http://www.w3.org/2000/svg"><path d="M485.21 363.91c0 10.637-2.992 20.498-7.785 29.174l-153.2-171.41 151.54-132.58c5.895 9.355 9.446 20.344 9.446 32.219v242.6zM242.61 252.8L453.47 68.3c-8.653-4.737-18.397-7.642-28.908-7.642H60.652c-10.524 0-20.271 2.905-28.889 7.642l210.84 184.5zm58.787-11.162l-48.809 42.734a15.145 15.145 0 01-9.978 3.729c-3.57 0-7.125-1.242-9.98-3.729l-48.82-42.736-155.14 173.6c9.299 5.834 20.197 9.329 31.983 9.329h363.91c11.784 0 22.687-3.495 31.983-9.329l-155.15-173.6zM9.457 89.088C3.563 98.443.009 109.432.009 121.308v242.6c0 10.637 2.978 20.498 7.789 29.174l153.18-171.44L9.458 89.082z"/></svg>