<svg xmlns="http://www.w3.org/2000/svg" viewBox="0 0 435 128"><style>.st0{fill:#1a355b}</style><path d="M133.8 90.8V65.1c0-.5.2-1 .6-1.4.4-.4.8-.6 1.4-.6h23.8c.5 0 1 .2 1.4.6.4.4.6.8.6 1.4V67c0 .5-.2 1-.6 1.4-.4.4-.8.6-1.4.6h-18v7.3h14.6c.5 0 1 .2 1.4.6.4.4.6.8.6 1.4v2c0 .5-.2 1-.6 1.4-.4.4-.8.6-1.4.6h-14.6V91c0 .6-.2 1-.6 1.4-.4.4-.8.6-1.4.6h-3.9c-.5 0-1-.2-1.4-.6-.3-.6-.5-1.1-.5-1.6zm32.3.1V65.2c0-.5.2-1 .6-1.4.4-.4.8-.6 1.4-.6h3.8c.6 0 1 .2 1.4.6.4.4.6.8.6 1.4v25.7c0 .5-.2 1-.6 1.4-.4.4-.9.6-1.4.6h-3.8c-.5 0-1-.2-1.4-.5-.4-.5-.6-1-.6-1.5zm15-.1V65.1c0-.5.2-1 .6-1.4.4-.4.8-.6 1.4-.6h23.8c.5 0 1 .2 1.4.6.4.4.6.8.6 1.4V67c0 .5-.2 1-.6 1.4-.4.4-.8.6-1.4.6h-18v7.3h14.6c.5 0 1 .2 1.4.6.4.4.6.8.6 1.4v2c0 .5-.2 1-.6 1.4-.4.4-.8.6-1.4.6h-14.6V91c0 .6-.2 1-.6 1.4-.4.4-.8.6-1.4.6H183c-.5 0-1-.2-1.4-.6-.4-.6-.5-1.1-.5-1.6zm29.7-23.7v-1.9c0-.6.2-1 .6-1.4.4-.4.8-.6 1.4-.6H239c.6 0 1 .2 1.4.6.4.4.6.8.6 1.4v1.9c0 .6-.2 1-.6 1.4-.4.4-.8.5-1.4.5h-9.2v21.8c0 .5-.2 1-.6 1.4-.4.4-.8.5-1.4.5h-3.9c-.5 0-1-.2-1.4-.5-.4-.4-.6-.8-.6-1.4V69h-9.2c-.6 0-1-.2-1.4-.5-.3-.4-.5-.8-.5-1.4zm34.7 23.7V65.2c0-.5.2-1 .6-1.4.4-.4.9-.6 1.4-.6h3.8c.5 0 1 .2 1.4.6.4.4.6.8.6 1.4v9.3h14.2v-9.3c0-.5.2-1 .6-1.4.4-.4.8-.6 1.4-.6h3.8c.6 0 1 .2 1.4.6.4.4.6.8.6 1.4v25.7c0 .5-.2 1-.6 1.4s-.9.6-1.4.6h-3.8c-.5 0-1-.2-1.4-.5-.4-.4-.6-.8-.6-1.4V80.3h-14.2v10.6c0 .5-.2 1-.6 1.4-.4.4-.8.5-1.4.5h-3.8c-.5 0-1-.2-1.4-.6s-.6-.8-.6-1.4zm51.3-5.6c0-.8.2-1.4.7-1.7.5-.4.9-.5 1.4-.5h2.5c1.2 0 2.2.7 2.8 2 .6 1.3 2.1 2 4.3 2l7.2.1c2.4 0 3.6-.8 3.6-2.4 0-1.2-1.5-2.1-4.4-2.8-1.3-.3-2.8-.6-4.4-.9-1.6-.3-3.2-.7-4.8-1.2-1.6-.5-3-1-4.3-1.6-1.3-.6-2.4-1.5-3.2-2.6-.8-1.1-1.2-2.4-1.2-3.9 0-2.8 1-4.9 2.9-6.4 2-1.5 5.3-2.2 10.1-2.2l5.2.1c2.8 0 5.4.7 7.6 2.2 2.3 1.4 3.4 3.3 3.4 5.4 0 .8-.2 1.4-.7 1.8-.5.4-.9.5-1.4.5h-2.5c-1.2 0-2.2-.7-2.8-2-.6-1.4-2.1-2-4.3-2l-6.2-.1c-2.4 0-3.6.8-3.6 2.4 0 .9.8 1.6 2.3 2.1 1.5.6 3.4 1 5.6 1.5 2.2.4 4.4.9 6.6 1.5 2.2.6 4.1 1.6 5.6 2.9 1.5 1.4 2.3 3 2.3 5.1 0 2.8-1 4.9-3 6.4s-5.3 2.2-10.1 2.2l-6.2-.1c-2.8 0-5.4-.7-7.6-2.2-2.3-1.6-3.4-3.4-3.4-5.6zm32.7-18.1v-1.9c0-.6.2-1 .6-1.4.4-.4.8-.6 1.4-.6h26.2c.6 0 1 .2 1.4.6.4.4.6.8.6 1.4v1.9c0 .6-.2 1-.6 1.4-.4.4-.8.5-1.4.5h-9.2v21.8c0 .5-.2 1-.6 1.4-.4.4-.8.5-1.4.5h-3.9c-.5 0-1-.2-1.4-.5-.4-.4-.6-.8-.6-1.4V69h-9.2c-.6 0-1-.2-1.4-.5-.4-.4-.5-.8-.5-1.4zm34.7 23.7V65.1c0-.5.2-1 .6-1.4.4-.4.8-.6 1.4-.6H390c.5 0 1 .2 1.4.6.4.4.6.8.6 1.4V67c0 .5-.2 1-.6 1.4-.4.4-.8.6-1.4.6h-18v6h15.5c.5 0 1 .2 1.4.6.4.4.6.8.6 1.4v1.9c0 .5-.2 1-.6 1.4-.4.4-.8.6-1.4.6H372V87h17.9c.5 0 1 .2 1.3.6.4.4.6.8.6 1.4v2c0 .5-.2 1-.6 1.4-.4.4-.8.6-1.4.6h-23.7c-.5 0-1-.2-1.4-.6-.3-.6-.5-1.1-.5-1.6zm32.7 0V65.2c0-.5.2-1 .6-1.4.4-.4.8-.6 1.4-.6h15.7c8.3 0 12.5 3.8 12.5 11.5s-4.2 11.5-12.5 11.5h-9.9v4.6c0 .5-.2 1-.6 1.4-.4.4-.8.6-1.4.6h-3.9c-.5 0-1-.2-1.4-.6-.3-.4-.5-.8-.5-1.4zm7.8-10.4h7.5c2.3 0 4.1-.4 5.3-1.2 1.2-.8 1.8-2.3 1.8-4.5s-.6-3.7-1.8-4.5-2.9-1.2-5.3-1.2h-7.5v11.4zm-270.9 35.2c0-.4.1-.6.3-.8.2-.2.4-.2.6-.2h1.1c.5 0 .9.3 1.2.9.3.6.9.9 1.9.9l3.1.1c1 0 1.6-.3 1.6-1 0-.5-.6-.9-1.9-1.2-.6-.1-1.2-.3-1.9-.4-.7-.1-1.4-.3-2.1-.5-.7-.2-1.3-.4-1.9-.7-.6-.3-1-.7-1.4-1.1-.4-.5-.5-1-.5-1.7 0-1.2.4-2.1 1.3-2.8.9-.6 2.3-1 4.4-1l2.3.1c1.2 0 2.3.3 3.3.9 1 .6 1.5 1.4 1.5 2.4 0 .4-.1.6-.3.8-.2.2-.4.2-.6.2h-1.1c-.5 0-.9-.3-1.2-.9-.3-.6-.9-.9-1.9-.9l-2.7-.1c-1 0-1.6.3-1.6 1 0 .4.3.7 1 .9.7.2 1.5.4 2.4.6.9.2 1.9.4 2.8.7 1 .3 1.8.7 2.4 1.3.7.6 1 1.3 1 2.2 0 1.2-.4 2.1-1.3 2.8-.9.6-2.3 1-4.4 1l-2.7-.1c-1.2 0-2.3-.3-3.3-.9-.9-.8-1.4-1.6-1.4-2.5zm20.1 1.3l1.2-.1h.3c.2 0 .3.1.4.2.1.1.2.2.2.4v1c0 .1-.1.2-.2.4-.1.1-.2.2-.4.2-.6.1-1.4.2-2.4.2-2.6 0-3.8-1.3-3.8-4v-8.4c0-.2.1-.3.2-.4.1-.1.2-.2.4-.2h2c.2 0 .3.1.4.2s.2.2.2.4v3h2.5c.2 0 .3.1.4.2.1.1.2.2.2.4v1.1c0 .2-.1.3-.2.4-.1.1-.2.2-.4.2h-2.5v3.3c0 .6.1 1.1.4 1.4.2-.1.6.1 1.1.1zm4.8.8c-.9-.9-1.4-2.1-1.4-3.8s.5-2.9 1.4-3.8c.9-.9 2.2-1.3 3.8-1.3s2.9.4 3.8 1.3c.9.9 1.4 2.1 1.4 3.7v.5c0 .2-.1.3-.2.4-.1.1-.2.2-.4.2h-6.7c.1.7.3 1.3.6 1.6.4.3.9.5 1.7.5.8 0 1.3-.2 1.6-.5.3-.4.7-.5 1.1-.5h1.3c.2 0 .3.1.4.2.1.1.2.2.2.4 0 1.7-1.6 2.6-4.9 2.6-1.5-.2-2.8-.6-3.7-1.5zm1.8-4.7h4.2c-.1-1.4-.7-2.1-2.1-2.1-1.4 0-2 .7-2.1 2.1zm9.5 5.3v-8.7c0-.2.1-.3.2-.4.1-.1.2-.2.4-.2h2c.2 0 .3.1.4.2.1.1.2.2.2.4v.6c.4-.4.9-.7 1.3-1 .4-.2.9-.3 1.5-.3 1.4 0 2.4.6 3.2 1.7 1.1-1.1 2.2-1.7 3.4-1.7 1.2 0 2.1.4 2.8 1.1.7.7 1 1.8 1 3.2v5.1c0 .2-.1.3-.2.4-.1.1-.2.2-.4.2h-2c-.2 0-.3-.1-.4-.2-.1-.1-.2-.2-.2-.4v-5.1c0-1.4-.5-2.1-1.6-2.1-.6 0-1.3.5-2 1.4 0 .3.1.5.1.8v5.1c0 .2-.1.3-.2.4-.1.1-.2.2-.4.2h-2c-.2 0-.3-.1-.4-.2-.1-.1-.2-.2-.2-.4v-5.1c0-1.4-.5-2.1-1.6-2.1-.7 0-1.3.4-1.9 1.3v6c0 .2-.1.3-.2.4-.1.1-.2.2-.4.2h-2c-.2 0-.3-.1-.4-.2v-.6zm27-1c-1.1-1.1-1.7-2.7-1.7-4.9s.6-3.8 1.7-4.9c1.1-1.1 2.8-1.6 5-1.6h2c1.4 0 2.5.4 3.6 1.1 1 .7 1.6 1.7 1.6 2.9 0 .4-.1.6-.3.8-.2.2-.4.2-.6.2h-1.1c-.5 0-1-.3-1.3-1-.4-.9-1.2-1.4-2.2-1.4H202c-1.3 0-2.2.3-2.7.8-.5.6-.7 1.6-.7 3.1s.2 2.6.7 3.1c.5.6 1.3.8 2.7.8h1.8c1 0 1.8-.5 2.2-1.4.3-.7.7-1 1.3-1h1.1c.3 0 .5.1.7.3.2.2.2.4.2.7 0 1.2-.5 2.2-1.6 2.9-1 .7-2.2 1-3.6 1H202c-2.3.1-3.9-.4-5-1.5zm15.2.4c-.9-.9-1.4-2.1-1.4-3.8s.5-2.9 1.4-3.8c.9-.9 2.2-1.3 3.8-1.3s2.9.4 3.8 1.3 1.4 2.1 1.4 3.7v.5c0 .2-.1.3-.2.4-.1.1-.2.2-.4.2H214c.1.7.3 1.3.6 1.6.4.3.9.5 1.7.5s1.3-.2 1.6-.5c.3-.4.7-.5 1.1-.5h1.3c.2 0 .3.1.4.2.1.1.2.2.2.4 0 1.7-1.6 2.6-4.9 2.6-1.6-.2-2.9-.6-3.8-1.5zm1.8-4.7h4.2c-.1-1.4-.7-2.1-2.1-2.1-1.4 0-2.1.7-2.1 2.1zm9.5 5.3v-11.7c0-.2.1-.3.2-.4.1-.1.2-.2.4-.2h2c.2 0 .3.1.4.2.1.1.2.2.2.4v11.7c0 .2-.1.3-.2.4-.1.1-.2.2-.4.2h-2c-.2 0-.3-.1-.4-.2-.2-.1-.2-.2-.2-.4zm5.8 0v-11.7c0-.2.1-.3.2-.4.1-.1.2-.2.4-.2h2c.2 0 .3.1.4.2.1.1.2.2.2.4v11.7c0 .2-.1.3-.2.4-.1.1-.2.2-.4.2h-2c-.2 0-.3-.1-.4-.2-.1-.1-.2-.2-.2-.4zm11.9-10.6v-.8c0-.2.1-.4.2-.6.2-.2.4-.2.6-.2h11.3c.2 0 .4.1.6.2.2.2.2.4.2.6v.8c0 .2-.1.4-.2.6-.2.2-.4.2-.6.2h-4v9.5c0 .2-.1.4-.2.6-.2.2-.4.2-.6.2h-1.7c-.2 0-.4-.1-.6-.2-.2-.2-.2-.4-.2-.6v-9.5h-4c-.2 0-.4-.1-.6-.2-.1-.1-.2-.3-.2-.6zm20.9 3.6l-1.4-.1c-.8 0-1.6.4-2.3 1.3v5.7c0 .2-.1.3-.2.4-.1.1-.2.2-.4.2h-2c-.2 0-.3-.1-.4-.2-.1-.1-.2-.2-.2-.4v-8.7c0-.2.1-.3.2-.4.1-.1.2-.2.4-.2h2c.2 0 .3.1.4.2.1.1.2.2.2.4v.6c.6-.4 1.2-.8 1.8-1 .6-.2 1.3-.3 2.2-.3.2 0 .3.1.4.2.1.1.2.2.2.4v1.4c0 .2-.1.3-.2.4-.1.1-.2.2-.4.2h-.3zm3.4 6.4c-.9-.9-1.4-2.1-1.4-3.8s.5-2.9 1.4-3.8c.9-.9 2.2-1.3 3.8-1.3 1.6 0 2.9.4 3.8 1.3.9.9 1.4 2.1 1.4 3.7v.5c0 .2-.1.3-.2.4-.1.1-.2.2-.4.2h-6.7c.1.7.3 1.3.6 1.6.4.3.9.5 1.7.5.8 0 1.3-.2 1.6-.5.3-.4.7-.5 1.1-.5h1.3c.2 0 .3.1.4.2.1.1.2.2.2.4 0 1.7-1.6 2.6-4.9 2.6-1.5-.2-2.8-.6-3.7-1.5zm1.8-4.7h4.2c-.1-1.4-.7-2.1-2.1-2.1-1.4 0-2.1.7-2.1 2.1zm10.1 5.2c-.8-.5-1.2-1.3-1.2-2.3 0-1 .4-1.8 1.2-2.3.8-.5 1.8-.8 3.1-.8h3c0-.7-.1-1.2-.4-1.5-.3-.3-.8-.4-1.5-.4s-1.2.2-1.5.5c-.3.4-.7.5-1.1.5h-1.3c-.2 0-.3-.1-.4-.2-.1-.1-.2-.2-.2-.4 0-1.7 1.6-2.6 4.9-2.6 1.4 0 2.6.3 3.4 1 .9.6 1.3 1.6 1.3 2.9v5.5c0 .2-.1.3-.2.4-.1.1-.2.2-.4.2h-1.7c-.2 0-.3-.1-.4-.2-.1-.1-.2-.2-.2-.4v-.1c-.9.7-2 1-3.3 1-1.3 0-2.3-.2-3.1-.8zm2.3-3.1c-.2.2-.4.5-.4.8 0 .3.1.6.4.8.2.2.6.3 1.1.3.9 0 1.8-.3 2.7-.8v-1.4h-2.7c-.5 0-.9.1-1.1.3zm14.2 1.8l1.2-.1h.3c.2 0 .3.1.4.2.1.1.2.2.2.4v1c0 .1-.1.2-.2.4-.1.1-.2.2-.4.2-.6.1-1.4.2-2.4.2-2.6 0-3.8-1.3-3.8-4v-8.4c0-.2.1-.3.2-.4.1-.1.2-.2.4-.2h2c.2 0 .3.1.4.2s.2.2.2.4v3h2.5c.2 0 .3.1.4.2.1.1.2.2.2.4v1.1c0 .2-.1.3-.2.4-.1.1-.2.2-.4.2h-2.5v3.3c0 .6.1 1.1.4 1.4.3-.1.6.1 1.1.1zm4.1 1.4v-8.7c0-.2.1-.3.2-.4.1-.1.2-.2.4-.2h2c.2 0 .3.1.4.2.1.1.2.2.2.4v.6c.4-.4.9-.7 1.3-1 .4-.2.9-.3 1.5-.3 1.4 0 2.4.6 3.2 1.7 1.1-1.1 2.2-1.7 3.4-1.7 1.2 0 2.1.4 2.8 1.1.7.7 1 1.8 1 3.2v5.1c0 .2-.1.3-.2.4-.1.1-.2.2-.4.2h-2c-.2 0-.3-.1-.4-.2-.1-.1-.2-.2-.2-.4v-5.1c0-1.4-.5-2.1-1.6-2.1-.6 0-1.3.5-2 1.4 0 .3.1.5.1.8v5.1c0 .2-.1.3-.2.4-.1.1-.2.2-.4.2h-2c-.2 0-.3-.1-.4-.2-.1-.1-.2-.2-.2-.4v-5.1c0-1.4-.5-2.1-1.6-2.1-.7 0-1.3.4-1.9 1.3v6c0 .2-.1.3-.2.4-.1.1-.2.2-.4.2h-2c-.2 0-.3-.1-.4-.2.1-.3 0-.4 0-.6zm19.8-.6c-.9-.9-1.4-2.1-1.4-3.8s.5-2.9 1.4-3.8c.9-.9 2.2-1.3 3.8-1.3 1.6 0 2.9.4 3.8 1.3.9.9 1.4 2.1 1.4 3.7v.5c0 .2-.1.3-.2.4-.1.1-.2.2-.4.2h-6.7c.1.7.3 1.3.6 1.6.4.3.9.5 1.7.5.8 0 1.3-.2 1.6-.5.3-.4.7-.5 1.1-.5h1.3c.2 0 .3.1.4.2.1.1.2.2.2.4 0 1.7-1.6 2.6-4.9 2.6-1.5-.2-2.8-.6-3.7-1.5zm1.8-4.7h4.2c-.1-1.4-.7-2.1-2.1-2.1-1.4 0-2.1.7-2.1 2.1zm9.5 5.3v-8.7c0-.2.1-.3.2-.4.1-.1.2-.2.4-.2h2c.2 0 .3.1.4.2.1.1.2.2.2.4v.6c1-.9 2.1-1.3 3.3-1.3 1.2 0 2.1.4 2.8 1.1.7.7 1.1 1.8 1.1 3.2v5.1c0 .2-.1.3-.2.4-.1.1-.2.2-.4.2h-2c-.2 0-.3-.1-.4-.2-.1-.1-.2-.2-.2-.4v-5.1c0-1.4-.6-2.1-1.7-2.1-.7 0-1.5.4-2.4 1.3v6c0 .2-.1.3-.2.4-.1.1-.2.2-.4.2h-2c-.2 0-.3-.1-.4-.2-.1-.2-.1-.3-.1-.5zm17.7-1.4l1.2-.1h.3c.2 0 .3.1.4.2.1.1.2.2.2.4v1c0 .1-.1.2-.2.4-.1.1-.2.2-.4.2-.6.1-1.4.2-2.4.2-2.6 0-3.8-1.3-3.8-4v-8.4c0-.2.1-.3.2-.4.1-.1.2-.2.4-.2h2c.2 0 .3.1.4.2s.2.2.2.4v3h2.5c.2 0 .3.1.4.2.1.1.2.2.2.4v1.1c0 .2-.1.3-.2.4-.1.1-.2.2-.4.2h-2.5v3.3c0 .6.1 1.1.4 1.4.2-.1.6.1 1.1.1zm12.2.4c-1.1-1.1-1.7-2.7-1.7-4.9s.6-3.8 1.7-4.9c1.1-1.1 2.8-1.6 5-1.6h2c1.4 0 2.5.4 3.6 1.1 1 .7 1.6 1.7 1.6 2.9 0 .4-.1.6-.3.8-.2.2-.4.2-.6.2h-1.1c-.5 0-1-.3-1.3-1-.4-.9-1.2-1.4-2.2-1.4H364c-1.3 0-2.2.3-2.7.8-.5.6-.7 1.6-.7 3.1s.2 2.6.7 3.1c.5.6 1.3.8 2.7.8h1.8c1 0 1.8-.5 2.2-1.4.3-.7.7-1 1.3-1h1.1c.3 0 .5.1.7.3.2.2.2.4.2.7 0 1.2-.5 2.2-1.6 2.9-1 .7-2.2 1-3.6 1h-2.2c-2.2.1-3.8-.4-4.9-1.5zm15.2.4c-.9-.9-1.4-2.1-1.4-3.8s.5-2.9 1.4-3.8c.9-.9 2.2-1.3 3.8-1.3s2.9.4 3.8 1.3 1.4 2.1 1.4 3.7v.5c0 .2-.1.3-.2.4-.1.1-.2.2-.4.2H376c.1.7.3 1.3.6 1.6.4.3.9.5 1.7.5s1.3-.2 1.6-.5c.3-.4.7-.5 1.1-.5h1.3c.2 0 .3.1.4.2.1.1.2.2.2.4 0 1.7-1.6 2.6-4.9 2.6-1.6-.2-2.9-.6-3.8-1.5zm1.7-4.7h4.2c-.1-1.4-.7-2.1-2.1-2.1-1.3 0-2 .7-2.1 2.1zm9.5 5.3v-8.7c0-.2.1-.3.2-.4.1-.1.2-.2.4-.2h2c.2 0 .3.1.4.2.1.1.2.2.2.4v.6c1-.9 2.1-1.3 3.3-1.3 1.2 0 2.1.4 2.8 1.1.7.7 1.1 1.8 1.1 3.2v5.1c0 .2-.1.3-.2.4-.1.1-.2.2-.4.2h-2c-.2 0-.3-.1-.4-.2-.1-.1-.2-.2-.2-.4v-5.1c0-1.4-.6-2.1-1.7-2.1-.7 0-1.5.4-2.4 1.3v6c0 .2-.1.3-.2.4-.1.1-.2.2-.4.2h-2c-.2 0-.3-.1-.4-.2 0-.2-.1-.3-.1-.5zm17.7-1.4l1.2-.1h.3c.2 0 .3.1.4.2.1.1.2.2.2.4v1c0 .1-.1.2-.2.4-.1.1-.2.2-.4.2-.6.1-1.4.2-2.4.2-2.6 0-3.8-1.3-3.8-4v-8.4c0-.2.1-.3.2-.4.1-.1.2-.2.4-.2h2c.2 0 .3.1.4.2.1.1.2.2.2.4v3h2.5c.2 0 .3.1.4.2.1.1.2.2.2.4v1.1c0 .2-.1.3-.2.4-.1.1-.2.2-.4.2h-2.5v3.3c0 .6.1 1.1.4 1.4.3-.1.7.1 1.1.1zm4.9.8c-.9-.9-1.4-2.1-1.4-3.8s.5-2.9 1.4-3.8c.9-.9 2.2-1.3 3.8-1.3 1.6 0 2.9.4 3.8 1.3s1.4 2.1 1.4 3.7v.5c0 .2-.1.3-.2.4-.1.1-.2.2-.4.2h-6.7c.1.7.3 1.3.6 1.6.4.3.9.5 1.7.5s1.3-.2 1.6-.5c.3-.4.7-.5 1.1-.5h1.3c.2 0 .3.1.4.2.1.1.2.2.2.4 0 1.7-1.6 2.6-4.9 2.6-1.5-.2-2.8-.6-3.7-1.5zm1.8-4.7h4.2c-.1-1.4-.7-2.1-2.1-2.1-1.4 0-2.1.7-2.1 2.1zm16.2-1.7l-1.4-.1c-.8 0-1.6.4-2.3 1.3v5.7c0 .2-.1.3-.2.4-.1.1-.2.2-.4.2h-2c-.2 0-.3-.1-.4-.2-.1-.1-.2-.2-.2-.4v-8.7c0-.2.1-.3.2-.4.1-.1.2-.2.4-.2h2c.2 0 .3.1.4.2.1.1.2.2.2.4v.6c.6-.4 1.2-.8 1.8-1 .6-.2 1.3-.3 2.2-.3.2 0 .3.1.4.2.1.1.2.2.2.4v1.4c0 .2-.1.3-.2.4-.1.1-.2.2-.4.2h-.3z" class="st0"/><path d="M88.5 32.1c-3.8-1-7.7-1.5-11.6-1.5-12.4 0-24 4.8-32.7 13.5-8.7 8.7-13.5 20.3-13.5 32.7 0 3.9.5 7.8 1.5 11.6-3.9-2-7.6-4.6-10.8-7.8C5 64.2 5 37.6 21.4 21.2s43-16.4 59.4 0c3.1 3.3 5.7 7 7.7 10.9zM92.8 55c-.9 9.4-4.9 18.4-12.1 25.6-7.2 7.2-16.3 11.2-25.6 12.1-.5-.7-.9-1.3-1.3-2-2.5-4.2-3.8-8.9-3.8-13.9 0-7.2 2.8-14 7.9-19.1 5.2-5.2 12.1-7.9 19.1-7.9 4.8 0 9.6 1.3 13.9 3.9.5.4 1.2.9 1.9 1.3z" fill="#a7c3ea"/><path d="M106.5 47.2c-4.6-4.6-10.1-7.9-15.9-9.9-4.5-1.5-9.1-2.3-13.8-2.3-10.7 0-21.5 4.1-29.7 12.3-7.9 7.9-12.3 18.5-12.3 29.7 0 4.8.8 9.4 2.3 13.8 2 5.9 5.4 11.3 10 15.9C55 114.6 65.6 119 76.8 119s21.7-4.4 29.7-12.3c7.9-7.9 12.3-18.5 12.3-29.7 0-11.4-4.4-21.9-12.3-29.8zM99 98.9c-5.9 5.9-13.8 9.2-22.1 9.2s-16.2-3.3-22.1-9.2c-1.8-1.8-3.4-3.9-4.7-6-2.9-4.8-4.4-10.3-4.4-16.1 0-8.3 3.3-16.2 9.2-22.1 10.2-10.3 26-11.9 38-4.7 2.1 1.3 4.2 2.9 6 4.7 5.9 5.9 9.2 13.8 9.2 22.1 0 8.4-3.2 16.2-9.1 22.1z" class="st0"/><circle cx="113.5" cy="22.9" r="5.3" class="st0"/></svg>