<svg viewBox="0 0 384 384" xmlns="http://www.w3.org/2000/svg"><path d="M192 384c105.86 0 192-86.129 192-192 0-18.273-2.55-36.281-7.602-53.527-2.488-8.48-11.344-13.352-19.848-10.863-8.488 2.48-13.344 11.367-10.863 19.848 4.184 14.328 6.313 29.32 6.313 44.543 0 88.223-71.777 160-160 160s-160-71.777-160-160 71.777-160 160-160c32.062 0 62.91 9.375 89.207 27.105 7.32 4.941 17.273 3 22.207-4.32 4.937-7.328 3.012-17.273-4.317-22.211C267.495 11.265 230.464 0 191.997 0c-105.86 0-192 86.129-192 192s86.137 192 192 192z"/><path d="M356.69 36.688L192 201.368l-52.688-52.68c-6.25-6.246-16.375-6.246-22.625 0-6.246 6.25-6.246 16.375 0 22.625l64 64c3.129 3.129 7.215 4.688 11.312 4.688s8.184-1.56 11.312-4.688l176-176c6.246-6.25 6.246-16.375 0-22.625-6.25-6.246-16.375-6.246-22.625 0z"/></svg>