<svg viewBox="0 0 447.63 447" xmlns="http://www.w3.org/2000/svg"><path d="M231.82 447.05c34.23-4.863 64.238-40.59 83.121-93.352a406.319 406.319 0 00-83.121-9.785zm54.68-8.39c2.023-.586 4.04-1.176 6.04-1.824 1.687-.543 3.35-1.13 5.015-1.711a203.28 203.28 0 005.883-2.121c1.664-.633 3.312-1.305 4.964-1.977 1.907-.8 3.809-1.597 5.692-2.398a240.827 240.827 0 0010.422-4.922 289.991 289.991 0 004.8-2.504 227.92 227.92 0 005.344-2.95 203.336 203.336 0 004.703-2.753c1.735-1.067 3.461-2.133 5.176-3.2a191.515 191.515 0 004.578-2.992 220.898 220.898 0 005.008-3.503 417.326 417.326 0 004.422-3.2 365.7 365.7 0 004.848-3.793c1.425-1.136 2.847-2.265 4.25-3.433 1.597-1.328 3.128-2.703 4.68-4.078 1.359-1.207 2.726-2.403 4.054-3.64 1.527-1.427 3.016-2.903 4.504-4.368 1.289-1.274 2.594-2.527 3.855-3.832.235-.242.457-.504.7-.754a268.894 268.894 0 00-54.816-21.094 198.512 198.512 0 01-51.13 83.023c.65-.168 1.298-.305 1.946-.473 1.71-.48 3.39-1.007 5.062-1.504zm161.13-206.98h-95.922a414.899 414.899 0 01-16.152 110.68 278.244 278.244 0 0160.715 24.16 223.505 223.505 0 0051.359-134.84zm-215.81-16h103.89a400.178 400.178 0 00-15.75-106.74 421.413 421.413 0 01-88.145 10.512zm0-215.364v103.14a406.586 406.586 0 0083.121-9.785C296.058 40.91 266.05 5.183 231.82.32zm0 327.594a421.632 421.632 0 0188.145 10.516 400.229 400.229 0 0015.75-106.75h-103.89zM396.27 80.844a278.214 278.214 0 01-60.715 24.16 414.891 414.891 0 0116.152 110.68h95.922a223.58 223.58 0 00-51.359-134.84zm-10.81-12.137c-.234-.238-.457-.496-.688-.742-1.265-1.305-2.578-2.563-3.867-3.832-1.484-1.465-2.965-2.945-4.496-4.367-1.324-1.235-2.695-2.403-4.055-3.633-1.55-1.375-3.101-2.762-4.695-4.09-1.383-1.168-2.8-2.285-4.207-3.406a171.335 171.335 0 00-4.89-3.824 220.828 220.828 0 00-4.383-3.2 193.152 193.152 0 00-5.055-3.546 200.002 200.002 0 00-4.535-2.957 190.35 190.35 0 00-5.219-3.258 223.709 223.709 0 00-4.664-2.727 221.203 221.203 0 00-5.39-2.984c-1.602-.801-3.2-1.672-4.801-2.473-1.84-.93-3.696-1.824-5.598-2.703a174.29 174.29 0 00-4.875-2.227c-1.895-.84-3.809-1.597-5.719-2.398a225.556 225.556 0 00-4.953-1.969 191.282 191.282 0 00-5.879-2.117 209.974 209.974 0 00-5.015-1.715c-2-.648-4-1.238-6.055-1.832-1.664-.488-3.336-.984-5.02-1.43-.644-.175-1.3-.312-1.949-.48a198.528 198.528 0 0151.13 83.023 268.503 268.503 0 0054.878-21.113zM0 215.68h95.922A415.055 415.055 0 01112.07 105a277.898 277.898 0 01-60.711-24.16A223.515 223.515 0 000 215.68zm215.82 231.37V343.91a406.586 406.586 0 00-83.121 9.785c18.879 52.762 48.891 88.488 83.121 93.352zm0-215.37H111.93a400.13 400.13 0 0015.75 106.75 421.126 421.126 0 0188.145-10.516zm0-231.364c-34.23 4.864-64.242 40.59-83.121 93.352a406.047 406.047 0 0083.121 9.786zm0 119.134a421.374 421.374 0 01-88.145-10.512 400.03 400.03 0 00-15.75 106.74h103.89zM168.11 6.79c-.648.167-1.297.304-1.945.472-1.696.453-3.367.957-5.055 1.445-2.008.586-4 1.176-6.016 1.816-1.699.551-3.37 1.137-5.043 1.72-1.957.69-3.918 1.378-5.855 2.113-1.672.64-3.32 1.304-4.977 1.984-1.902.8-3.808 1.602-5.687 2.398-1.649.723-3.278 1.48-4.91 2.243a223.696 223.696 0 00-5.512 2.68 296.096 296.096 0 00-4.8 2.503 226.805 226.805 0 00-5.337 2.953 149.237 149.237 0 00-4.719 2.75c-1.738 1.047-3.457 2.13-5.168 3.2a206.951 206.951 0 00-4.578 3A220.898 220.898 0 0093.5 41.57a403.296 403.296 0 00-4.425 3.203c-1.637 1.231-3.2 2.512-4.848 3.79-1.422 1.136-2.856 2.265-4.246 3.441-1.602 1.32-3.121 2.687-4.664 4.055-1.367 1.218-2.746 2.402-4.082 3.664-1.52 1.418-3 2.89-4.485 4.351-1.289 1.274-2.601 2.532-3.867 3.84-.23.242-.453.508-.695.754a268.59 268.59 0 0054.816 21.098A198.461 198.461 0 01168.109 6.79zM66.719 383.23c1.488 1.465 2.969 2.945 4.496 4.371 1.328 1.23 2.695 2.399 4.059 3.629 1.55 1.379 3.101 2.762 4.695 4.09 1.383 1.16 2.793 2.281 4.207 3.406 1.602 1.297 3.2 2.586 4.894 3.832 1.442 1.082 2.907 2.129 4.372 3.203 1.671 1.2 3.359 2.399 5.062 3.55a214.506 214.506 0 004.535 2.962c1.73 1.11 3.457 2.199 5.22 3.254 1.542.93 3.1 1.84 4.663 2.73a208.605 208.605 0 005.39 2.98c1.598.801 3.2 1.673 4.802 2.473 1.84.93 3.695 1.825 5.597 2.707 1.602.754 3.227 1.497 4.875 2.223 1.895.84 3.805 1.598 5.72 2.398 1.647.672 3.288 1.336 4.952 1.97 1.942.745 3.91 1.44 5.88 2.12 1.663.582 3.327 1.168 5.015 1.711 2 .649 4 1.242 6.054 1.832 1.664.489 3.336.985 5.016 1.434.648.176 1.305.312 1.953.48a198.567 198.567 0 01-51.129-83.027 268.631 268.631 0 00-54.816 21.105c.234.239.457.496.692.743 1.199 1.296 2.492 2.554 3.796 3.824zm-15.36-16.71a278.262 278.262 0 0160.711-24.16 415.008 415.008 0 01-16.148-110.68H0a223.556 223.556 0 0051.359 134.84z"/></svg>