<svg viewBox="0 0 512 512" xmlns="http://www.w3.org/2000/svg"><path d="M310 190c-5.52 0-10 4.48-10 10s4.48 10 10 10 10-4.48 10-10-4.48-10-10-10z"/><path d="M500.28 443.72L366.8 310.24c21.745-32.754 33.199-70.684 33.199-110.24 0-110.28-89.72-200-200-200s-200 89.72-200 200 89.72 200 200 200c39.556 0 77.486-11.455 110.24-33.198l133.48 133.48c7.558 7.557 17.601 11.719 28.282 11.719s20.724-4.162 28.278-11.716c7.559-7.553 11.722-17.597 11.722-28.284s-4.163-20.731-11.719-28.281zm-194.74-97.992l-.002.002c-30.867 22.42-67.359 34.271-105.53 34.271-99.252 0-180-80.748-180-180s80.748-180 180-180 180 80.748 180 180c0 38.175-11.851 74.667-34.272 105.54a180.872 180.872 0 01-40.192 40.192zm20.98 9.066a200.674 200.674 0 0028.277-28.277l28.371 28.371a242.733 242.733 0 01-28.277 28.277l-28.371-28.371zm159.62 131.35c-3.78 3.78-8.801 5.861-14.139 5.861s-10.359-2.081-14.139-5.861l-88.795-88.795a262.775 262.775 0 0028.277-28.277l88.798 88.798c3.778 3.774 5.859 8.793 5.859 14.135s-2.081 10.361-5.861 14.139z"/><path d="M200 40c-88.225 0-160 71.775-160 160s71.775 160 160 160 160-71.775 160-160S288.225 40 200 40zm0 300c-77.196 0-140-62.804-140-140S122.804 60 200 60s140 62.804 140 140-62.804 140-140 140z"/><path d="M312.06 157.07c-8.611-22.412-23.604-41.574-43.36-55.413-20.226-14.17-43.984-21.66-68.705-21.66-5.522 0-10 4.478-10 10s4.478 10 10 10c41.099 0 78.631 25.818 93.396 64.247a10.003 10.003 0 009.337 6.416 9.978 9.978 0 003.584-.668c5.155-1.981 7.729-7.766 5.748-12.922z"/></svg>