<svg viewBox="0 0 384.97 384.97" xmlns="http://www.w3.org/2000/svg"><path d="M12.03 120.3h360.91c6.641 0 12.03-5.39 12.03-12.03 0-6.641-5.39-12.03-12.03-12.03H12.03C5.389 96.24 0 101.63 0 108.27s5.39 12.03 12.03 12.03zm360.91 60.16H12.03C5.389 180.46 0 185.85 0 192.49s5.39 12.03 12.03 12.03h360.91c6.641 0 12.03-5.39 12.03-12.03s-5.389-12.03-12.03-12.03zm0 84.21H132.33c-6.641 0-12.03 5.39-12.03 12.03 0 6.641 5.39 12.03 12.03 12.03h240.61c6.641 0 12.03-5.39 12.03-12.03.001-6.641-5.389-12.03-12.03-12.03z"/></svg>