<svg viewBox="0 -40 448 448" xmlns="http://www.w3.org/2000/svg"><path d="M369.02 291.57a520.953 520.953 0 00-133.66 35.672l-3.352 1.402V363.3l15.648-6.504a488.36 488.36 0 01147.2-35.793l13.152-1.07V.003l-12.207 1.024a469.393 469.393 0 00-142.3 34.688l-21.488 8.921V87.3l33.734-14.008a437.267 437.267 0 01101.03-28.57 8 8 0 019.141 6.665 7.996 7.996 0 01-6.664 9.144 421.166 421.166 0 00-97.344 27.527l-39.895 16.555v38.688l33.734-14.008a437.267 437.267 0 01101.03-28.57 8 8 0 019.14 6.664 7.996 7.996 0 01-6.664 9.145 421.166 421.166 0 00-97.344 27.527l-39.895 16.555v38.688l33.734-14.008a437.267 437.267 0 01101.03-28.57 8 8 0 019.141 6.664 7.996 7.996 0 01-6.664 9.144 421.166 421.166 0 00-97.344 27.527l-39.895 16.555v38.688l33.734-14.008a437.267 437.267 0 01101.03-28.57 8 8 0 019.14 6.664 7.996 7.996 0 01-6.664 9.145 421.166 421.166 0 00-97.344 27.527l-39.895 16.555v38.75A536.908 536.908 0 01367 275.709a8.008 8.008 0 017.559 2.996 8.008 8.008 0 011.031 8.066 7.988 7.988 0 01-6.558 4.801zM52.207 1.023L40 0v319.95l14.199 1.207a485.134 485.134 0 01147.05 36l14.754 6.137v-34.695l-2.398-1.008a517.223 517.223 0 00-134.59-36 8.009 8.009 0 01-6.934-8.95 8.009 8.009 0 018.95-6.933 533.396 533.396 0 01134.98 35.625v-38.727l-40-16.609a421.448 421.448 0 00-97.247-27.48 7.995 7.995 0 01-6.426-4.988 8.001 8.001 0 018.902-10.812 436.459 436.459 0 01100.93 28.52l33.84 14.058v-38.688l-40-16.609a421.448 421.448 0 00-97.245-27.48 7.995 7.995 0 01-6.426-4.988 8.001 8.001 0 018.902-10.812 436.459 436.459 0 01100.93 28.52l33.84 14.059v-38.688l-40-16.61a421.448 421.448 0 00-97.246-27.48 7.995 7.995 0 01-6.426-4.988 8.001 8.001 0 018.902-10.812 436.459 436.459 0 01100.93 28.52l33.84 14.059V104.61l-40-16.609a421.448 421.448 0 00-97.245-27.48 7.995 7.995 0 01-6.426-4.988 8.001 8.001 0 018.902-10.812 436.459 436.459 0 01100.93 28.52l33.84 14.058V44.635l-21.465-8.914A469.468 469.468 0 0052.217 1.026z"/><path d="M448 47.297h-24v280a8.001 8.001 0 01-7.344 8l-20.488 1.68a444.746 444.746 0 00-17.688 1.816c-1.906.23-3.8.535-5.695.8-3.961.528-7.914 1.063-11.855 1.688-2.297.368-4.578.797-6.867 1.2-3.528.617-7.063 1.23-10.582 1.925-2.403.48-4.801 1.02-7.25 1.54-3.352.71-6.703 1.437-10.031 2.23a473.14 473.14 0 00-7.465 1.855 338.892 338.892 0 00-9.68 2.563 430.819 430.819 0 00-7.504 2.148 472.903 472.903 0 00-9.511 2.914l-7.415 2.399a442.997 442.997 0 00-9.449 3.305c-2.398.87-4.8 1.746-7.254 2.664-1.097.418-2.187.863-3.28 1.289h183.36zm-448 0v320h183.49c-.984-.387-1.969-.8-2.96-1.168-2.29-.871-4.599-1.703-6.903-2.543a419.716 419.716 0 00-9.77-3.426c-2.367-.8-4.742-1.578-7.12-2.336a272.4 272.4 0 00-9.766-3.007c-2.403-.704-4.801-1.41-7.2-2.082a545.003 545.003 0 00-9.89-2.622 340.069 340.069 0 00-7.254-1.808c-3.352-.801-6.723-1.535-10.09-2.258-2.399-.52-4.8-1.047-7.2-1.527-3.488-.688-6.992-1.305-10.495-1.918-2.297-.403-4.594-.801-6.895-1.211-3.867-.613-7.746-1.133-11.625-1.656-1.96-.262-3.906-.575-5.863-.797a497.288 497.288 0 00-17.602-1.817l-21.535-1.824a8 8 0 01-7.32-8v-280z"/></svg>