<svg viewBox="0 0 409.16 409.16" xmlns="http://www.w3.org/2000/svg"><path d="M204.58 216.67c50.664 0 91.74-48.075 91.74-107.38 0-82.237-41.074-107.38-91.74-107.38-50.668 0-91.74 25.14-91.74 107.38.001 59.303 41.073 107.38 91.74 107.38zm202.58 158.05l-46.284-104.26a23.23 23.23 0 00-10.465-11.138l-71.83-37.392a4.628 4.628 0 00-4.926.415c-20.316 15.366-44.203 23.488-69.076 23.488-24.877 0-48.762-8.122-69.078-23.488a4.635 4.635 0 00-4.93-.415l-71.825 37.392a23.222 23.222 0 00-10.465 11.138L1.997 374.72a23.059 23.059 0 001.75 22.005 23.056 23.056 0 0019.4 10.526h362.86a23.063 23.063 0 0019.402-10.527 23.063 23.063 0 001.75-22.004z"/></svg>