<svg xmlns="http://www.w3.org/2000/svg" width="512pt" height="512pt" fill="#ff004e" viewBox="0 0 512 512"><path fill="#ff004e !important" d="M497 36.95h-65.7c.24-7.27.37-14.6.37-21.95 0-8.3-6.72-15-15-15H95.34c-8.3 0-15 6.7-15 15 0 7.36.12 14.68.36 21.95H15c-8.3 0-15 6.72-15 15 0 67.2 17.57 130.62 49.46 178.56 31.53 47.4 73.52 74.58 118.9 77.23 10.27 11.2 21.15 20.32 32.47 27.28v66.67h-25.16c-30.42 0-55.17 24.75-55.17 55.17V482h-1.07c-8.28 0-15 6.7-15 15 0 8.28 6.72 15 15 15h273.14c8.28 0 15-6.72 15-15 0-8.3-6.72-15-15-15h-1.07v-25.17c0-30.42-24.75-55.17-55.17-55.17h-25.16V335c11.32-6.96 22.2-16.1 32.48-27.28 45.37-2.65 87.36-29.83 118.9-77.2C494.42 182.56 512 119.15 512 51.94c0-8.28-6.72-15-15-15zM74.44 213.9c-26.3-39.55-41.77-91.26-44.12-146.95h52.06c5.4 68.46 21.48 131.74 46.6 181.98 4 8 8.18 15.55 12.52 22.67-24.95-9.42-48.04-29.12-67.06-57.7zm363.12 0c-19.02 28.58-42.1 48.28-67.06 57.7 4.34-7.12 8.52-14.67 12.52-22.67 25.12-50.24 41.2-113.52 46.6-181.98h52.06c-2.35 55.7-17.8 107.4-44.12 146.94zm0 0"/></svg>