<svg xmlns="http://www.w3.org/2000/svg" width="957.599" height="957.6" fill="#ff004e"><path fill="#ff004e !important" d="M817.9 108.4h-28v687.9c0 45.7-37.2 82.9-82.9 82.9H197.7v25.5c0 29.2 23.7 52.9 52.9 52.9h567.2c29.2 0 52.9-23.7 52.9-52.9V161.3c0-29.2-23.6-52.9-52.8-52.9zM423.3 849.2h283.6c29.2 0 52.9-23.7 52.9-52.9V52.9c0-29.2-23.7-52.9-52.9-52.9H329v17.5c.2 1.8.3 3.7.3 5.6V168c0 41.1-33.4 74.5-74.5 74.5H109.9c-1.5 0-3.1-.1-4.6-.2H86.9v554c0 29.2 23.7 52.9 52.9 52.9h283.5zM434 669.4H249.1c-13.8 0-25-11.2-25-25s11.2-25 25-25h185c13.8 0 25 11.2 25 25s-11.3 25-25.1 25zm185-127.6H249.1c-13.8 0-25-11.2-25-25s11.2-25 25-25H619c13.8 0 25 11.2 25 25s-11.2 25-25 25zM249.1 356.3H619c13.8 0 25 11.2 25 25s-11.2 25-25 25H249.1c-13.8 0-25-11.2-25-25s11.2-25 25-25zM109.9 212.5h145.3c24.2-.2 43.8-19.8 44-44V23.1c0-13.4-11-22.3-22.4-22.3-5.5 0-11 2-15.6 6.6L94.1 174.5c-14 14-4.1 38 15.8 38z"/></svg>