<svg xmlns="http://www.w3.org/2000/svg" width="124.813" height="124.813" fill="#ff004e"><path fill="#ff004e !important" d="M48.08 80.36l-1.9 11.37c-.27 1.55.36 3.12 1.64 4.05 1.27.92 2.97 1.05 4.36.32l10.22-5.34 10.23 5.34c.6.3 1.27.47 1.93.47a4.148 4.148 0 004.07-4.84l-1.9-11.37 8.23-8.08c1.12-1.1 1.52-2.75 1.04-4.25s-1.77-2.6-3.33-2.82l-11.4-1.68L66.1 53.2a4.148 4.148 0 00-3.72-2.32c-1.57 0-3 .9-3.7 2.3l-5.15 10.34-11.4 1.7c-1.57.22-2.86 1.3-3.35 2.8-.48 1.5-.08 3.16 1.05 4.26l8.23 8.08zm63.36-67.09H98.38V6.02c0-3.32-2.7-6.02-6.02-6.02h-.96a6.02 6.02 0 00-6.02 6.02v7.25h-46.1V6.02c0-3.32-2.7-6.02-6.02-6.02h-.95c-3.32 0-6.02 2.7-6.02 6.02v7.25h-12.9c-6.84 0-12.4 5.56-12.4 12.4v86.75c0 6.83 5.56 12.4 12.4 12.4h98.06c6.84 0 12.4-5.57 12.4-12.4V25.66c0-6.83-5.56-12.4-12.4-12.4zm-1.6 97.53H14.98V43.27h94.83v67.53z"/></svg>