<svg xmlns="http://www.w3.org/2000/svg" viewBox="0 0 480.008 480.008"><path d="M184.004 128c-10.416 0-19.216 6.712-22.528 16H78.532c-3.312-9.288-12.112-16-22.528-16-13.232 0-24 10.768-24 24s10.768 24 24 24c10.416 0 19.216-6.712 22.528-16h82.952c3.312 9.288 12.112 16 22.528 16 13.232 0 24-10.768 24-24s-10.776-24-24.008-24zm-128 32c-4.408 0-8-3.584-8-8s3.592-8 8-8 8 3.584 8 8-3.592 8-8 8zm128 0c-4.408 0-8-3.584-8-8s3.592-8 8-8 8 3.584 8 8-3.592 8-8 8z"/><path d="M248.004 177.472V128c0-2.128-.84-4.16-2.344-5.656l-32-32A7.979 7.979 0 00208.004 88h-25.472c-3.312-9.288-12.112-16-22.528-16-13.232 0-24 10.768-24 24s10.768 24 24 24c10.416 0 19.216-6.712 22.528-16h22.16l27.312 27.312v46.16c-9.288 3.312-16 12.112-16 22.528 0 13.232 10.768 24 24 24s24-10.768 24-24c0-10.416-6.712-19.216-16-22.528zm-88-73.472c-4.408 0-8-3.584-8-8s3.592-8 8-8 8 3.584 8 8-3.592 8-8 8zm80 104c-4.408 0-8-3.584-8-8s3.592-8 8-8 8 3.584 8 8-3.592 8-8 8zm152 0c-3.696 0-7.152.904-10.28 2.408l-13.72-13.72V120c0-2.128-.84-4.16-2.344-5.656L285.596 34.28c1.504-3.128 2.408-6.584 2.408-10.28 0-13.232-10.768-24-24-24s-24 10.768-24 24 10.768 24 24 24c3.696 0 7.152-.904 10.28-2.408l77.72 77.72V200c0 2.128.84 4.16 2.344 5.656l16.064 16.064c-1.504 3.128-2.408 6.584-2.408 10.28 0 13.232 10.768 24 24 24s24-10.768 24-24-10.768-24-24-24zm-128-176c-4.408 0-8-3.584-8-8s3.592-8 8-8c4.408 0 8 3.584 8 8s-3.592 8-8 8zm128 208c-4.408 0-8-3.584-8-8s3.592-8 8-8c4.408 0 8 3.584 8 8s-3.592 8-8 8zm72-126.528V80c0-2.128-.84-4.16-2.344-5.656l-56-56A7.979 7.979 0 00400.004 16h-41.472C355.22 6.712 346.42 0 336.004 0c-13.232 0-24 10.768-24 24s10.768 24 24 24c10.416 0 19.216-6.712 22.528-16h38.16l51.312 51.312v30.16c-9.288 3.312-16 12.112-16 22.528 0 13.232 10.768 24 24 24s24-10.768 24-24c0-10.416-6.712-19.216-16-22.528zM336.004 32c-4.408 0-8-3.584-8-8s3.592-8 8-8c4.408 0 8 3.584 8 8s-3.592 8-8 8zm120 112c-4.408 0-8-3.584-8-8s3.592-8 8-8c4.408 0 8 3.584 8 8s-3.592 8-8 8zM352.012 433.48V318.528c9.28-3.312 15.992-12.112 15.992-22.528 0-13.232-10.768-24-24-24-10.416 0-19.216 6.712-22.528 16h-82.944c-3.312-9.288-12.112-16-22.528-16s-19.216 6.712-22.528 16h-46.16l-29.72-29.72c1.504-3.128 2.408-6.584 2.408-10.28 0-13.232-10.768-24-24-24s-24 10.768-24 24 10.768 24 24 24c3.696 0 7.152-.904 10.28-2.408l32.064 32.064a7.979 7.979 0 005.656 2.344h49.472c3.312 9.288 12.112 16 22.528 16s19.216-6.712 22.528-16h82.952a23.976 23.976 0 0014.528 14.528V433.48c-9.288 3.312-16 12.112-16 22.528 0 13.232 10.768 24 24 24s24-10.768 24-24c0-10.416-6.712-19.216-16-22.528zM96.004 256c-4.408 0-8-3.584-8-8s3.592-8 8-8 8 3.584 8 8-3.592 8-8 8zm120 48c-4.408 0-8-3.584-8-8s3.592-8 8-8 8 3.584 8 8-3.592 8-8 8zm128 160c-4.408 0-8-3.584-8-8s3.592-8 8-8c4.408 0 8 3.584 8 8s-3.592 8-8 8zm0-160c-4.408 0-8-3.584-8-8s3.592-8 8-8c4.408 0 8 3.584 8 8s-3.592 8-8 8z"/><path d="M312.004 161.472V136c0-2.128-.84-4.16-2.344-5.656L213.596 34.28c1.504-3.128 2.408-6.584 2.408-10.28 0-13.232-10.768-24-24-24-10.416 0-19.216 6.712-22.528 16h-33.472c-4.416 0-8 3.576-8 8v20.688l-29.72 29.72C95.156 72.904 91.7 72 88.004 72c-13.232 0-24 10.768-24 24s10.768 24 24 24 24-10.768 24-24c0-3.696-.904-7.152-2.408-10.28l32.064-32.064A7.965 7.965 0 00144.004 48V32h25.472c3.312 9.288 12.112 16 22.528 16 3.696 0 7.152-.904 10.28-2.408l93.72 93.72v22.16c-9.288 3.312-16 12.112-16 22.528 0 13.232 10.768 24 24 24s24-10.768 24-24c0-10.416-6.712-19.216-16-22.528zM88.004 104c-4.408 0-8-3.584-8-8s3.592-8 8-8 8 3.584 8 8-3.592 8-8 8zm104-72c-4.408 0-8-3.584-8-8s3.592-8 8-8 8 3.584 8 8-3.592 8-8 8zm112 160c-4.408 0-8-3.584-8-8s3.592-8 8-8c4.408 0 8 3.584 8 8s-3.592 8-8 8z"/><path d="M288.004 224c-10.416 0-19.216 6.712-22.528 16h-94.16l-45.656-45.656a7.979 7.979 0 00-5.656-2.344H35.316l-19.312-19.312v-65.376l61.72-61.72C80.852 47.096 84.308 48 88.004 48c13.232 0 24-10.768 24-24s-10.768-24-24-24-24 10.768-24 24c0 3.696.904 7.152 2.408 10.28L2.348 98.344A7.965 7.965 0 00.004 104v72c0 2.128.84 4.16 2.344 5.656l24 24A7.979 7.979 0 0032.004 208h84.688l45.656 45.656a7.979 7.979 0 005.656 2.344h97.472c3.312 9.288 12.112 16 22.528 16 13.232 0 24-10.768 24-24s-10.768-24-24-24zm-200-208c4.408 0 8 3.584 8 8s-3.592 8-8 8-8-3.584-8-8 3.592-8 8-8zm200 240c-4.408 0-8-3.584-8-8s3.592-8 8-8c4.408 0 8 3.584 8 8s-3.592 8-8 8zm168-64c-3.696 0-7.152.904-10.28 2.408l-29.72-29.72v-46.16c9.288-3.312 16-12.112 16-22.528 0-13.232-10.768-24-24-24s-24 10.768-24 24c0 10.416 6.712 19.216 16 22.528V168c0 2.128.84 4.16 2.344 5.656l32.064 32.064c-1.504 3.128-2.408 6.584-2.408 10.28 0 10.416 6.712 19.216 16 22.528v6.16l-61.656 61.656a7.965 7.965 0 00-2.344 5.656v9.472c-9.288 3.312-16 12.112-16 22.528s6.712 19.216 16 22.528v18.952c-9.288 3.312-16 12.112-16 22.528 0 13.232 10.768 24 24 24s24-10.768 24-24c0-10.416-6.712-19.216-16-22.528v-18.952c9.288-3.312 16-12.112 16-22.528 0-10.416-6.712-19.216-16-22.528v-6.16l61.656-61.656a7.965 7.965 0 002.344-5.656v-9.472c9.288-3.312 16-12.112 16-22.528 0-13.232-10.768-24-24-24zm-48-88c-4.408 0-8-3.584-8-8s3.592-8 8-8c4.408 0 8 3.584 8 8s-3.592 8-8 8zm-16 312c-4.408 0-8-3.584-8-8s3.592-8 8-8c4.408 0 8 3.584 8 8s-3.592 8-8 8zm0-64c-4.408 0-8-3.584-8-8s3.592-8 8-8c4.408 0 8 3.584 8 8s-3.592 8-8 8zm64-128c-4.408 0-8-3.584-8-8s3.592-8 8-8c4.408 0 8 3.584 8 8s-3.592 8-8 8z"/></svg>