<svg xmlns="http://www.w3.org/2000/svg" width="512" height="512" viewBox="0 0 64 64"><path d="M55 18h-3V9c0-.55-.45-1-1-1h-4c-.55 0-1 .45-1 1v9h-2v-5c0-.55-.45-1-1-1h-4c-.55 0-1 .45-1 1v5H27C16.52 18 8 26.52 8 37c0 8.9 6.3 16.72 15 18.58h.04c1.3.28 2.63.42 3.96.42h4c4.96 0 9-4.04 9-9v-5c8.82 0 16-7.18 16-16v-7c0-.55-.45-1-1-1zm-7-8h2v8h-2zm-8 4h2v4h-2zm-2 33c0 3.86-3.14 7-7 7h-4c-.7 0-1.42-.04-2.1-.13l3.95-6.35c.32-.52.6-1.03.9-1.5C31.25 43.36 32.15 42 34 42h4zm16-21c0 7.72-6.28 14-14 14h-.1a6.96 6.96 0 002.1-5v-2c0-.55-.45-1-1-1s-1 .45-1 1v2c0 2.76-2.24 5-5 5h-1c-3.1 0-4.5 2.43-6 5-.26.48-.55.97-.85 1.47l-4.37 7C15.33 51.57 10 44.75 10 37c0-9.37 7.63-17 17-17h8c2.76 0 5 2.24 5 5 0 .55.45 1 1 1s1-.45 1-1c0-1.96-.8-3.73-2.1-5H54zm-13.7 2.3c-.2.18-.3.44-.3.7s.1.52.3.7c.18.2.44.3.7.3s.52-.1.7-.3c.2-.18.3-.44.3-.7s-.1-.52-.3-.7c-.36-.38-1.04-.38-1.4 0z"/></svg>