<svg xmlns="http://www.w3.org/2000/svg" width="512pt" height="512pt" viewBox="-66 0 512 512"><path d="M190 44.7c-5.52 0-10 4.46-10 10v.22c0 5.52 4.48 10 10 10s10-4.48 10-10v-.23c0-5.6-4.48-10-10-10zM34.45 465.16c0 7.25 5.94 13.16 13.23 13.16h284.64c7.3 0 13.23-5.9 13.23-13.16v-327.2c0-7.25-5.93-13.16-13.23-13.16H47.68c-7.3 0-13.23 5.9-13.23 13.16zm20-320.35h271.1v313.6H54.45zm181.33 283.5h-.23c-5.53 0-10 4.5-10 10s4.47 10 10 10h.23c5.52 0 10-4.4 10-10s-4.48-10-10-10zm69.77 0h-41.03c-5.53 0-10 4.5-10 10s4.47 10 10 10h41.03c5.52 0 10-4.4 10-10s-4.48-10-10-10zM354 60.5h-59.43c-1.1-16.62-15.2-29.8-32.35-29.8h-23.66C229.96 12.28 210.98 0 190 0s-39.97 12.27-48.56 30.6h-23.66c-17.88 0-32.44 14.33-32.44 31.94v14.9c0 17.6 14.56 31.94 32.44 31.94h144.45c16.86 0 30.76-12.74 32.28-28.96H354c3.26 0 6 2.75 6 6V486c0 3.26-2.74 6-6 6H26c-3.25 0-6-2.74-6-6V86.42c0-3.25 2.75-6 6-6 5.53 0 10-4.47 10-10 0-5.52-4.47-10-10-10-14.33 0-26 11.67-26 26V486c0 14.34 11.67 26 26 26h328c14.34 0 26-11.66 26-26V86.42c0-14.33-11.66-26-26-26zm-79.34 17c0 6.57-5.58 11.92-12.44 11.92H117.77c-6.85 0-12.43-5.35-12.43-11.93V62.6c0-6.6 5.58-11.95 12.43-11.95h30.53c4.42 0 8.33-2.9 9.58-7.15 4.1-13.8 17.3-23.44 32.1-23.44s28.02 9.6 32.12 23.4c1.27 4.26 5.17 7.17 9.6 7.17h30.53c6.85 0 12.43 5.38 12.43 11.96zM54.73 80.4H55c5.52 0 10-4.48 10-10s-4.48-10-10-10h-.27c-5.52 0-10 4.48-10 10s4.48 10 10 10zM260 313.56v-24c0-9.92-8.07-18-18-18h-22v-22c0-9.92-8.07-18-18-18h-24c-9.93 0-18 8.08-18 18v22h-22c-9.93 0-18 8.08-18 18v24c0 9.93 8.07 18 18 18h22v22c0 9.93 8.07 18 18 18h24c9.93 0 18-8.07 18-18v-22h22c9.93 0 18-8.07 18-18zm-20-2h-30c-5.52 0-10 4.48-10 10v30h-20v-30c0-5.52-4.48-10-10-10h-30v-20h30c5.52 0 10-4.48 10-10v-30h20v30c0 5.52 4.48 10 10 10h30z"/></svg>