<svg viewBox="0 0 512 512" xmlns="http://www.w3.org/2000/svg"><path d="M329.67 94.916c-31.353-31.353-73.038-48.619-117.38-48.619S126.266 63.563 94.91 94.916c-35.475 35.474-52.878 84.473-47.746 134.43.43 4.193 4.183 7.236 8.372 6.813a7.633 7.633 0 006.813-8.372c-4.661-45.371 11.143-89.868 43.355-122.08 28.47-28.47 66.322-44.149 106.58-44.149s78.115 15.679 106.58 44.149 44.149 66.322 44.149 106.58-15.679 78.115-44.149 106.58c-28.47 28.47-66.322 44.149-106.58 44.149s-78.115-15.679-106.58-44.149c-18.095-18.096-31.352-40.58-38.336-65.024a7.632 7.632 0 00-14.677 4.193c7.696 26.932 22.295 51.699 42.219 71.623 31.353 31.353 73.038 48.619 117.38 48.619s86.024-17.266 117.38-48.619 48.619-73.038 48.619-117.38-17.267-86.024-48.619-117.38z"/><path d="M498.04 430.67L392.26 324.89c40.921-65.457 43.764-149.75 3.994-218.64a7.632 7.632 0 10-13.219 7.631c44.459 77.016 31.538 174.78-31.425 237.74-37.214 37.214-86.692 57.708-139.32 57.708s-102.11-20.495-139.32-57.708-57.708-86.692-57.708-139.32 20.494-102.11 57.708-139.32 86.692-57.709 139.32-57.709S314.4 35.767 351.61 72.98a199.99 199.99 0 0115.534 17.467 7.633 7.633 0 0011.984-9.454 214.936 214.936 0 00-16.725-18.805C322.306 22.091 268.995.008 212.293.008c-56.706 0-110.02 22.083-150.11 62.179C22.087 102.284.004 155.595.004 212.297s22.083 110.02 62.178 150.11 93.408 62.179 150.11 62.179c40.468 0 79.203-11.254 112.64-32.268l105.73 105.73c8.998 8.998 20.963 13.955 33.689 13.955 12.727 0 24.692-4.957 33.69-13.955s13.955-20.963 13.955-33.689c0-12.727-4.956-24.692-13.955-33.69zm-10.793 56.585c-6.116 6.116-14.247 9.484-22.897 9.484-8.649 0-16.781-3.368-22.897-9.484l-103.68-103.68a215.214 215.214 0 0024.628-21.166 212.163 212.163 0 0021.136-24.658l103.71 103.71c12.626 12.625 12.626 33.168 0 45.793z"/><path d="M163.68 140.29c-3.223 1.932-4.521 5.987-3.131 9.46 1.255 2.975 4.286 4.899 7.525 4.694 3.013-.19 5.689-2.196 6.704-5.042 2.355-6.612-5.091-12.713-11.098-9.112zm80.25-18.15c-2.818 2.493-3.339 6.812-1.276 9.941 1.862 2.729 5.34 4.035 8.526 3.075 2.882-.868 5.01-3.392 5.393-6.376.883-6.857-7.505-11.184-12.643-6.64zm12.77 112.72c-3.647-5.672-12.508-3.681-13.829 2.737-1.409 6.844 6.769 11.742 12.209 7.486 3.076-2.406 3.808-6.982 1.62-10.223zm-127.54 49.52c-1.821-2.764-5.398-4.031-8.559-3.062-2.935.901-5.056 3.506-5.374 6.553-.316 3.043 1.319 6.034 3.998 7.473 3.031 1.628 6.876.968 9.209-1.558 2.372-2.568 2.64-6.498.726-9.406zm100.77 16.29c-2.006-3.014-5.918-4.157-9.261-2.819-2.874 1.186-4.797 4.125-4.716 7.239.08 3.128 2.133 5.932 5.065 6.992 2.928 1.058 6.317.162 8.344-2.197 2.21-2.571 2.445-6.391.568-9.215zm108.63-116a7.63 7.63 0 00-9.521-5.083l-12.431 3.778c-5.865-9.707-16.681-15.482-28.012-14.953l-3.778-12.432a7.632 7.632 0 00-14.604 4.438l3.775 12.422c-4.745 2.855-8.649 6.947-11.326 11.96-2.675 5.013-3.902 10.534-3.634 16.066l-12.422 3.775a7.629 7.629 0 00-5.083 9.52 7.636 7.636 0 007.299 5.415c.736 0 1.483-.107 2.222-.332l12.43-3.778c5.619 9.298 15.781 14.989 26.583 14.989.473 0 .949-.031 1.425-.052l3.783 12.448a7.636 7.636 0 007.299 5.415 7.633 7.633 0 007.305-9.853l-3.778-12.432c9.706-5.866 15.479-16.683 14.952-28.011l12.432-3.778a7.633 7.633 0 005.084-9.522zm-43.932 29.836c-8.323 2.529-17.149-2.184-19.678-10.504-1.225-4.031-.807-8.297 1.177-12.014s5.297-6.438 9.328-7.663a15.719 15.719 0 014.578-.683c6.763-.002 13.033 4.388 15.099 11.186 2.53 8.321-2.183 17.148-10.504 19.678z"/><path d="M205.74 159.2a7.631 7.631 0 008.141-7.085 7.632 7.632 0 00-7.085-8.142l-6.666-.463c-.667-11.961-8.305-22.879-20.023-27.307l-.458-.173a31.151 31.151 0 00-25.577 1.609 30.875 30.875 0 00-12.831 12.827l-5.1-1.225a7.632 7.632 0 00-3.565 14.841l4.298 1.032a216.11 216.11 0 00-3.217 21.33l-8.093-.749a7.631 7.631 0 10-1.406 15.198l8.484.785a218.836 218.836 0 00.287 19.675l-11.862 1.696a7.632 7.632 0 002.16 15.109l11.164-1.597a215.47 215.47 0 002.769 16.416l-5.453 2.644a7.633 7.633 0 006.659 13.735l3.663-1.776a30.88 30.88 0 0012.042 11.428 31.137 31.137 0 0025.572 1.611l.443-.167a.008.008 0 00.004-.002c11.899-4.496 19.594-15.666 20.068-27.826l6.474-.892a7.633 7.633 0 00-2.085-15.121l-6.65.917a154.663 154.663 0 01-2.717-24.542l5.152-.576a7.632 7.632 0 006.736-8.433c-.468-4.189-4.242-7.21-8.433-6.736l-3.142.351c.44-6.356 1.27-12.681 2.491-18.932l7.756.54zm-21.249 68.636c1.834 7.65-2.378 15.533-9.797 18.337l-.443.167a15.882 15.882 0 01-13.039-.821c-4.015-2.126-6.808-5.711-7.861-10.095-7.404-30.813-7.404-63.387 0-94.202 1.053-4.384 3.845-7.97 7.861-10.095a15.877 15.877 0 0113.044-.819l.438.166c7.419 2.803 11.631 10.687 9.797 18.337-6.194 25.849-6.194 53.176 0 79.025zm39.099 40.794c-20.002 0-36.275 16.273-36.275 36.275s16.273 36.275 36.275 36.275 36.275-16.273 36.275-36.275-16.273-36.275-36.275-36.275zm0 57.286c-11.585 0-21.011-9.426-21.011-21.011s9.426-21.011 21.011-21.011 21.011 9.426 21.011 21.011-9.426 21.011-21.011 21.011z"/></svg>