<svg viewBox="0 0 512 512" xmlns="http://www.w3.org/2000/svg"><path d="M482 0H378.4c-16.542 0-30 13.458-30 30s13.458 30 30 30h31.177l-64.143 64.143c-37.189-28.059-82.928-43.418-129.8-43.418-41.028 0-80.945 11.577-115.43 33.479-4.662 2.961-6.042 9.141-3.081 13.803s9.139 6.041 13.803 3.081c31.278-19.863 67.487-30.362 104.71-30.362 45.29 0 89.407 15.8 124.22 44.49a10.004 10.004 0 0013.431-.646l87.496-87.497A10.002 10.002 0 00433.711 40h-55.318c-5.514 0-10-4.486-10-10s4.486-10 10-10h103.6c5.514 0 10 4.486 10 10v103.6c0 5.514-4.486 10-10 10-5.515 0-10.001-4.486-10.001-10V78.282a10.002 10.002 0 00-17.071-7.072l-87.496 87.497a10 10 0 00-.646 13.43c28.69 34.819 44.49 78.937 44.49 124.22 0 107.88-87.763 195.64-195.64 195.64s-195.64-87.763-195.64-195.64c0-37.225 10.5-73.436 30.365-104.72 2.96-4.663 1.581-10.842-3.081-13.803-4.663-2.961-10.841-1.582-13.803 3.082C11.567 215.41-.011 255.328-.011 296.356c0 57.599 22.43 111.75 63.159 152.48s94.88 63.159 152.48 63.159 111.75-22.43 152.48-63.159 63.159-94.88 63.159-152.48c0-46.868-15.359-92.606-43.418-129.8l64.142-64.142v31.176c0 16.542 13.458 30 30.001 30 16.542 0 30-13.458 30-30V29.99c-.001-16.542-13.459-30-30.001-30z"/><path d="M215.64 472c96.847 0 175.64-78.791 175.64-175.64 0-46.916-18.269-91.022-51.441-124.2-33.173-33.172-77.28-51.441-124.2-51.441-96.847 0-175.64 78.791-175.64 175.64 0 96.847 78.791 175.64 175.64 175.64zm0-331.28c41.575 0 80.659 16.188 110.05 45.583 29.396 29.396 45.584 68.481 45.584 110.05 0 85.819-69.819 155.64-155.64 155.64s-155.64-69.819-155.64-155.64 69.819-155.64 155.64-155.64zM70.23 160.955a9.972 9.972 0 007.071-2.929l.005-.005c3.905-3.905 3.903-10.234-.002-14.139-3.906-3.906-10.24-3.902-14.145.003s-3.905 10.237 0 14.142a9.975 9.975 0 007.071 2.928z"/></svg>