<svg viewBox="0 0 512 512" xmlns="http://www.w3.org/2000/svg"><path d="M212.73 295.59c-3.905-3.904-10.237-3.904-14.143 0-10.435 10.436-27.415 10.436-37.851 0-3.905-3.904-10.237-3.904-14.142 0-3.905 3.905-3.905 10.237 0 14.143 9.117 9.116 21.092 13.675 33.067 13.675 11.976 0 23.951-4.559 33.068-13.675 3.906-3.906 3.906-10.238.001-14.143zm152.67 0c-3.904-3.903-10.236-3.904-14.141 0-10.436 10.437-27.416 10.436-37.851 0-3.905-3.904-10.237-3.904-14.143 0-3.905 3.905-3.905 10.237 0 14.143 9.118 9.117 21.091 13.675 33.068 13.675 11.974 0 23.952-4.56 33.067-13.675 3.905-3.905 3.906-10.237 0-14.143zm-32.99-149.03c-3.681-4.118-10.002-4.473-14.12-.794l-.138.123c-4.118 3.681-4.474 10.002-.793 14.12a9.972 9.972 0 007.46 3.337 9.966 9.966 0 006.66-2.543l.138-.123c4.118-3.681 4.474-10.002.793-14.12zm-17.53 256.28c-.382-4.465-3.219-8.239-7.431-9.862a31.603 31.603 0 01-12.982-9.346 28.29 28.29 0 00-21.875-10.301c-5.968 0-11.797 1.916-16.597 5.367-4.799-3.451-10.628-5.367-16.597-5.367a28.289 28.289 0 00-21.875 10.302 31.628 31.628 0 01-13.007 9.354c-4.186 1.612-7.023 5.388-7.404 9.851-.383 4.486 1.786 8.71 5.662 11.024 1.524.909 4.136 3.676 6.661 6.352 8.96 9.494 22.494 23.836 46.497 23.871h.127c24.003-.035 37.537-14.377 46.497-23.871 2.525-2.676 5.137-5.442 6.661-6.352 3.876-2.313 6.046-6.536 5.663-11.022zm-26.869 3.646c-7.781 8.245-16.598 17.588-32.016 17.599-15.417-.011-24.235-9.354-32.016-17.599l-.896-.948a51.63 51.63 0 009.858-9.165 8.348 8.348 0 016.457-3.041c2.277 0 4.485.944 6.058 2.592l3.306 3.463a9.998 9.998 0 0014.466 0l3.306-3.462a8.417 8.417 0 016.059-2.593 8.35 8.35 0 016.457 3.04 51.55 51.55 0 009.858 9.166l-.897.948z"/><path d="M469.01 286.67c-.04-22.334-17.116-40.762-38.883-42.966v-15.7c0-58.413-28.934-110.19-73.221-141.77C349.255 36.762 306.709.002 256.126.002s-93.129 36.76-100.78 86.232c-44.287 31.574-73.221 83.355-73.221 141.77v15.681c-21.887 2.086-39.096 20.565-39.137 42.985L42.942 312c-.021 11.571 4.47 22.455 12.645 30.645 8.175 8.189 19.05 12.7 30.622 12.7h4.845a225.823 225.823 0 00162.54 156.36 10 10 0 004.824.004l.173-.043a225.8 225.8 0 00162.59-156.32h4.607c11.572 0 22.447-4.511 30.622-12.7s12.666-19.073 12.645-30.646l-.046-25.329zm-382.8 48.675a23.116 23.116 0 01-16.467-6.829 23.115 23.115 0 01-6.8-16.479l.046-25.329c.021-11.397 8.291-20.895 19.137-22.85v28.376a227.52 227.52 0 004.108 43.111h-.024zm169.92-315.34a81.872 81.872 0 0176.189 51.593c-23.023-11.261-48.879-17.593-76.189-17.593s-53.166 6.332-76.189 17.593c12.115-30.508 41.84-51.593 76.189-51.593zm154 272.17c0 94.109-63.256 175.82-154.11 199.51-90.734-23.776-153.89-105.44-153.89-199.45v-12.766l4.317-.977c56.931-12.885 111.76-36.149 160.8-68.006a178.581 178.581 0 00141.73 69.88h1.151v11.812zm0-36.173v4.36h-1.151a158.604 158.604 0 01-125.16-61.127 486.621 486.621 0 0020.373-15.245c4.333-3.426 5.067-9.715 1.642-14.047-3.424-4.331-9.713-5.067-14.046-1.643-55.309 43.731-120.89 75.079-189.66 90.659v-30.957c-.001-84.916 69.083-154 154-154s154 69.084 154 154v28zm32.129 72.512a23.11 23.11 0 01-16.246 6.824 227.563 227.563 0 004.117-43.164v-28.273c10.721 2.056 18.863 11.496 18.883 22.804l.046 25.328a23.118 23.118 0 01-6.8 16.481z"/></svg>