<svg viewBox="-133 -33 1065 1065" xmlns="http://www.w3.org/2000/svg"><path d="M406 734.98c-30.645 0-55.566 24.934-55.566 55.574 0 30.637 24.922 55.562 55.566 55.562 30.637 0 55.562-24.926 55.562-55.562 0-30.641-24.926-55.574-55.562-55.574zm0 81.887c-14.516 0-26.32-11.805-26.32-26.312 0-14.52 11.805-26.32 26.32-26.32s26.32 11.801 26.32 26.32c0 14.508-11.805 26.312-26.32 26.312z"/><path d="M757.43 895.55a14.618 14.618 0 00-13.59-9.219H639.93c-2.102-33.48-11.125-64.812-25.82-93.082 78.871-61.945 130.1-153.13 140.61-252.53.855-8.027-4.973-15.227-13.004-16.07-8.043-.86-15.234 4.969-16.074 13.008-9.523 89.98-55.031 172.95-125.61 229.97-3.313-4.816-7.691-8.746-11.328-13.297-5.867-7.273-11.48-14.727-18.129-21.262-.797-.765-1.344-1.758-2.148-2.515 143.98-115.19 149.03-334.57 3.972-454.64l14.332-14.336c5.72-5.711 5.72-14.973 0-20.676l-7.293-7.301 8-7.996c31.441 20.238 75.22 66.676 102.32 119.3 20.832 40.426 33.59 86.078 36.891 132.02.582 8.14 7.688 14.133 15.637 13.53 8.059-.574 14.11-7.577 13.531-15.632-7.773-108.01-61.457-205.58-147.37-270.24l31.727-31.727c15.758 7.828 31.477 3.793 41.684-6.414l12.86-12.86c14.16-14.151 14.16-37.187 0-51.347l-93.66-93.641c-14.157-14.16-37.189-14.16-51.349 0L536.85 21.452c-13.336 13.34-13.629 34.316-1.836 48.57l-59.582 59.574-13.023-13.02c-5.714-5.715-14.969-5.715-20.684 0l-93.184 93.18c-5.707 5.71-5.707 14.969 0 20.688 5.715 5.703 14.97 5.703 20.684 0l82.848-82.848c32.895 32.89 61.13 61.129 103.63 103.63l-199.46 199.46-103.64-103.64 74.391-74.375c5.703-5.715 5.703-14.965 0-20.68-5.722-5.704-14.984-5.704-20.688 0l-74.379 74.379-3.218-3.215c-12.2-12.2-32.06-12.2-44.254 0l-24.48 24.473c-12.2 12.199-12.2 32.062 0 44.262l3.222 3.215c-13.41 15.734-31.387 23.96-31.387 46.734 0 9.882 3.848 19.199 10.852 26.19 10.996 9.079 19.141 25.868 41.211 25.868 22.805 0 30.934-17.926 46.73-31.383l10.176 10.176c-13.406 15.742-31.383 23.973-31.383 46.73 0 21.949 16.746 30.168 25.867 41.223 7.004 6.992 16.305 10.848 26.2 10.848 22.808 0 30.933-17.93 46.737-31.387 2.016 1.437 9.028 12.367 25.34 12.367 8.012 0 16.035-3.043 22.137-9.149l24.465-24.473c12.203-12.199 12.203-32.055 0-44.258l-3.21-3.223 174.26-174.25c62.136 50.426 98.394 123.74 98.394 204.27 0 82.582-39.266 160.24-105.05 210.18-91.02-66.789-211.65-60.223-295.27 15.035-20.03-12.102-37.703-27.016-53.738-43.789h66.207c19.891 0 36.066-16.176 36.066-36.062V624.65c0-19.883-16.176-36.062-36.066-36.062H27.775c-19.89 0-36.078 16.18-36.078 36.062v22.102c0 19.887 16.188 36.062 36.078 36.062h33.801c24.211 45.88 69.086 96.008 125.89 131.89-8.867 22.375-13.824 46.508-15.402 71.61H68.154a14.616 14.616 0 00-13.586 9.226l-32.09 80.836c-3.808 9.582 3.262 20.02 13.586 20.02h80.73c8.086 0 14.625-6.543 14.625-14.625 0-8.078-6.539-14.625-14.625-14.625H57.6l20.488-51.586h655.83l20.484 51.586h-569.2c-8.074 0-14.613 6.547-14.613 14.625 0 8.082 6.54 14.625 14.613 14.625h590.73c10.316 0 17.41-10.418 13.59-20.02zM189.39 462.38c-3.043 3.043-7.996 3.043-11.023 0l-15.023-15.02c-3.043-3.04-3.043-7.996-.004-11.035l20.535-20.523 26.055 26.039zm77.59 77.59c-3.04 3.047-7.988 3.047-11.027 0l-15.027-15.02c-3.04-3.047-3.04-7.988 0-11.031l20.539-20.531 26.051 26.047zm92.48-41.793l-24.469 24.469c-2.82 2.832 4.66 6.21-154.33-151.43-.8-.797-.8-2.102 0-2.895 24.672-24.355 25.199-26.645 27.367-24.473l13.559 13.56c145.67 145.66 140.14 138.52 137.88 140.77zm198.07-456.04l12.859-12.859a7.068 7.068 0 019.992 0l93.648 93.648c2.746 2.75 2.746 7.227 0 9.988l-12.859 12.86c-2.75 2.75-7.23 2.75-9.984 0L557.53 52.12c-2.746-2.758-2.746-7.23 0-9.984zm-2.305 49.035l62.637 62.645-59.109 59.109-62.64-62.645zm-534.29 555.59v-22.098c0-3.762 3.067-6.828 6.824-6.828h233.96c3.762 0 6.825 3.066 6.825 6.828v22.098c0 3.762-3.063 6.82-6.824 6.82H27.76c-3.758 0-6.825-3.058-6.825-6.82zm178.33 141.52c-41.922-27.195-77.449-63.246-103.91-105.45h59.582c20.32 25.766 44.453 47.656 71.977 65.297-2.898 3.402-4.875 7.453-7.574 11-4.906 6.45-9.504 13.008-13.738 19.945-1.941 3.188-4.558 5.926-6.34 9.207zm1.078 98.055c7.352-104.42 96.742-191.55 205.65-191.55 111.16 0 198.49 89.555 205.66 191.55z"/></svg>