<svg height="448pt" viewBox="0 -40 448 448" width="448pt" xmlns="http://www.w3.org/2000/svg" fill="#ff004e"><path d="M369.016 291.566a521.014 521.014 0 00-133.664 35.672L232 328.641v34.656l15.648-6.504A488.38 488.38 0 01394.848 321L408 319.93V0l-12.207 1.023a469.472 469.472 0 00-142.305 34.688L232 44.633v42.664l33.734-14.008a437.326 437.326 0 01101.028-28.57 8 8 0 019.14 6.664 7.996 7.996 0 01-6.664 9.144 421.128 421.128 0 00-97.343 27.528L232 104.609v38.688l33.734-14.008a437.326 437.326 0 01101.028-28.57 8 8 0 019.14 6.664 7.996 7.996 0 01-6.664 9.144 421.128 421.128 0 00-97.343 27.528L232 160.609v38.688l33.734-14.008a437.326 437.326 0 01101.028-28.57 8 8 0 019.14 6.664 7.996 7.996 0 01-6.664 9.144 421.128 421.128 0 00-97.343 27.528L232 216.609v38.688l33.734-14.008a437.326 437.326 0 01101.028-28.57 8 8 0 019.14 6.664 7.996 7.996 0 01-6.664 9.144 421.128 421.128 0 00-97.343 27.528L232 272.609v38.75a536.89 536.89 0 01134.984-35.656 8.008 8.008 0 017.559 2.996 8.008 8.008 0 011.031 8.067 7.988 7.988 0 01-6.558 4.8zM52.207 1.023L40 0v319.953l14.2 1.207a485.1 485.1 0 01147.046 36L216 363.297v-34.695l-2.398-1.008a517.232 517.232 0 00-134.594-36 8.009 8.009 0 01-6.934-8.95 8.009 8.009 0 018.95-6.933A533.312 533.312 0 01216 311.336v-38.727L176 256a421.459 421.459 0 00-97.246-27.48 7.995 7.995 0 01-6.426-4.989 8.001 8.001 0 018.902-10.813 436.486 436.486 0 01100.93 28.52L216 255.297v-38.688L176 200a421.459 421.459 0 00-97.246-27.48 7.995 7.995 0 01-6.426-4.989 8.001 8.001 0 018.902-10.813 436.486 436.486 0 01100.93 28.52L216 199.297v-38.688L176 144a421.459 421.459 0 00-97.246-27.48 7.995 7.995 0 01-6.426-4.989 8.001 8.001 0 018.902-10.813 436.486 436.486 0 01100.93 28.52L216 143.297v-38.688L176 88a421.459 421.459 0 00-97.246-27.48 7.995 7.995 0 01-6.426-4.989 8.001 8.001 0 018.902-10.813 436.486 436.486 0 01100.93 28.52L216 87.297V44.633l-21.465-8.914A469.458 469.458 0 0052.207 1.023zm0 0"/><path d="M448 47.297h-24v280a8.001 8.001 0 01-7.344 8l-20.488 1.68a444.434 444.434 0 00-17.688 1.816c-1.906.23-3.8.535-5.695.8-3.96.528-7.914 1.063-11.855 1.688-2.297.367-4.578.797-6.868 1.2-3.527.617-7.062 1.23-10.582 1.925-2.402.48-4.8 1.02-7.25 1.54-3.351.71-6.703 1.437-10.03 2.23a473.217 473.217 0 00-7.466 1.855c-3.238.801-6.46 1.664-9.68 2.563a430.122 430.122 0 00-7.503 2.148c-3.2.946-6.352 1.906-9.512 2.914l-7.414 2.399a443.037 443.037 0 00-9.45 3.304c-2.398.871-4.8 1.746-7.253 2.664-1.098.418-2.188.864-3.281 1.29H448zm-448 0v320h183.488c-.984-.387-1.968-.8-2.96-1.168-2.29-.871-4.598-1.703-6.903-2.543a419.509 419.509 0 00-9.77-3.426c-2.367-.8-4.742-1.578-7.12-2.336a272.371 272.371 0 00-9.766-3.008c-2.403-.703-4.801-1.41-7.2-2.082a536.843 536.843 0 00-9.89-2.62 338.55 338.55 0 00-7.254-1.81c-3.352-.8-6.723-1.534-10.09-2.257-2.398-.52-4.8-1.047-7.2-1.527-3.487-.688-6.991-1.305-10.495-1.918-2.297-.403-4.594-.801-6.895-1.211-3.867-.614-7.746-1.133-11.625-1.657-1.96-.261-3.906-.574-5.863-.797a497.463 497.463 0 00-17.602-1.816l-21.535-1.824a8 8 0 01-7.32-8v-280zm0 0"/></svg>